<svg xmlns="http://www.w3.org/2000/svg" width="226.78" height="127.901" viewBox="0 0 226.78 127.901">
  <g id="Group_1323" data-name="Group 1323" transform="translate(2510.768 829.193)">
    <g id="Group_1322" data-name="Group 1322" transform="translate(-1199.051 -1959.504)">
      <g id="Group_1" data-name="Group 1" transform="translate(-1311.717 1244.939)">
        <path id="Path_1" data-name="Path 1" d="M-1311.279,1404.336a5.627,5.627,0,0,0,2.956.839c1.7,0,2.689-.9,2.689-2.193,0-1.182-.687-1.888-2.422-2.536-2.1-.763-3.395-1.869-3.395-3.662,0-2,1.659-3.489,4.157-3.489a5.753,5.753,0,0,1,2.822.629l-.458,1.354a4.752,4.752,0,0,0-2.422-.61c-1.754,0-2.422,1.049-2.422,1.926,0,1.2.782,1.793,2.555,2.479,2.174.839,3.261,1.888,3.261,3.776,0,1.983-1.449,3.719-4.481,3.719a6.634,6.634,0,0,1-3.28-.839Z" transform="translate(1311.717 -1393.295)"/>
        <path id="Path_2" data-name="Path 2" d="M-1281.144,1406.775a2.948,2.948,0,0,0,3.165,3.2,6,6,0,0,0,2.555-.477l.3,1.2a7.512,7.512,0,0,1-3.089.591,4.3,4.3,0,0,1-4.539-4.672c0-2.784,1.64-4.958,4.329-4.958,3.032,0,3.814,2.631,3.814,4.328a4.047,4.047,0,0,1-.057.782Zm4.919-1.2a2.382,2.382,0,0,0-2.326-2.707,2.749,2.749,0,0,0-2.575,2.707Z" transform="translate(1295.353 -1398.023)"/>
        <path id="Path_3" data-name="Path 3" d="M-1252.078,1404.736c0-1.087-.019-2.022-.076-2.88h1.469l.076,1.831h.057a2.791,2.791,0,0,1,2.574-2.021,3.375,3.375,0,0,1,.458.038v1.583a2.6,2.6,0,0,0-.572-.038,2.336,2.336,0,0,0-2.25,2.136,5.034,5.034,0,0,0-.057.782v4.92h-1.678Z" transform="translate(1278.073 -1398.023)"/>
        <path id="Path_4" data-name="Path 4" d="M-1230.112,1402.1l1.812,5.168c.3.858.552,1.621.744,2.384h.057c.21-.763.477-1.525.782-2.384l1.793-5.168h1.754l-3.623,9.229h-1.6l-3.509-9.229Z" transform="translate(1266.635 -1398.27)"/>
        <path id="Path_5" data-name="Path 5" d="M-1199.322,1394.782a1,1,0,0,1-1.068,1.029.987.987,0,0,1-1.011-1.029,1.022,1.022,0,0,1,1.048-1.049A1.007,1.007,0,0,1-1199.322,1394.782Zm-1.869,11.823v-9.229h1.678v9.229Z" transform="translate(1249.405 -1393.542)"/>
        <path id="Path_6" data-name="Path 6" d="M-1177.674,1410.761a6.479,6.479,0,0,1-2.651.534,4.385,4.385,0,0,1-4.6-4.71,4.7,4.7,0,0,1,4.958-4.92,5.278,5.278,0,0,1,2.326.5l-.381,1.278a4.116,4.116,0,0,0-1.945-.439,3.2,3.2,0,0,0-3.261,3.49,3.165,3.165,0,0,0,3.2,3.452,4.8,4.8,0,0,0,2.06-.439Z" transform="translate(1240.097 -1398.023)"/>
        <path id="Path_7" data-name="Path 7" d="M-1154.88,1394.782a1,1,0,0,1-1.068,1.029.987.987,0,0,1-1.011-1.029,1.022,1.022,0,0,1,1.049-1.049A1.007,1.007,0,0,1-1154.88,1394.782Zm-1.869,11.823v-9.229h1.678v9.229Z" transform="translate(1224.302 -1393.542)"/>
        <path id="Path_8" data-name="Path 8" d="M-1131.459,1406.394a4.521,4.521,0,0,1-4.6,4.9,4.4,4.4,0,0,1-4.424-4.748,4.511,4.511,0,0,1,4.577-4.882C-1133.251,1401.665-1131.459,1403.591-1131.459,1406.394Zm-7.3.1c0,2.021,1.144,3.547,2.784,3.547,1.6,0,2.8-1.507,2.8-3.585,0-1.564-.782-3.527-2.765-3.527C-1137.9,1402.924-1138.762,1404.755-1138.762,1406.49Z" transform="translate(1214.994 -1398.023)"/>
        <path id="Path_9" data-name="Path 9" d="M-1108.654,1409.388a4.744,4.744,0,0,0,2.232.648c1.2,0,1.773-.591,1.773-1.373,0-.8-.477-1.221-1.7-1.678-1.678-.61-2.46-1.506-2.46-2.613,0-1.488,1.22-2.708,3.185-2.708a4.286,4.286,0,0,1,2.25.572l-.4,1.22a3.582,3.582,0,0,0-1.888-.552c-.991,0-1.525.572-1.525,1.258,0,.763.534,1.106,1.735,1.583,1.583.591,2.422,1.392,2.422,2.765,0,1.64-1.278,2.785-3.433,2.785a5.264,5.264,0,0,1-2.594-.648Z" transform="translate(1197.243 -1398.023)"/>
        <path id="Path_10" data-name="Path 10" d="M-1066.32,1393.776h6.922v1.392h-5.244v4.271h4.844v1.373h-4.844v5.816h-1.678Z" transform="translate(1173.105 -1393.567)"/>
        <path id="Path_11" data-name="Path 11" d="M-1037.331,1394.782a1,1,0,0,1-1.068,1.029.987.987,0,0,1-1.011-1.029,1.023,1.023,0,0,1,1.049-1.049A1.007,1.007,0,0,1-1037.331,1394.782Zm-1.869,11.823v-9.229h1.678v9.229Z" transform="translate(1157.904 -1393.542)"/>
        <path id="Path_12" data-name="Path 12" d="M-1021.495,1404.354c0-.973-.019-1.735-.076-2.5h1.488l.095,1.525h.038a3.42,3.42,0,0,1,3.051-1.716c1.277,0,3.261.763,3.261,3.928v5.492h-1.678v-5.32c0-1.488-.553-2.727-2.136-2.727a2.421,2.421,0,0,0-2.25,1.717,2.41,2.41,0,0,0-.115.781v5.549h-1.678Z" transform="translate(1147.829 -1398.023)"/>
        <path id="Path_13" data-name="Path 13" d="M-984.252,1408.873a15.5,15.5,0,0,0,.134,2.212h-1.507l-.133-1.163h-.057a3.439,3.439,0,0,1-2.823,1.373,2.63,2.63,0,0,1-2.822-2.651c0-2.231,1.983-3.452,5.549-3.433v-.19a1.889,1.889,0,0,0-2.1-2.116,4.449,4.449,0,0,0-2.422.686l-.381-1.125a5.981,5.981,0,0,1,3.051-.8c2.822,0,3.509,1.926,3.509,3.757Zm-1.621-2.5c-1.831-.039-3.909.286-3.909,2.078a1.47,1.47,0,0,0,1.563,1.6,2.33,2.33,0,0,0,2.269-1.545,1.881,1.881,0,0,0,.076-.534Z" transform="translate(1130.821 -1398.023)"/>
        <path id="Path_14" data-name="Path 14" d="M-961.493,1404.354c0-.973-.019-1.735-.076-2.5h1.488l.095,1.525h.038a3.419,3.419,0,0,1,3.051-1.716c1.278,0,3.261.763,3.261,3.928v5.492h-1.678v-5.32c0-1.488-.553-2.727-2.136-2.727a2.421,2.421,0,0,0-2.25,1.717,2.407,2.407,0,0,0-.115.781v5.549h-1.678Z" transform="translate(1113.937 -1398.023)"/>
        <path id="Path_15" data-name="Path 15" d="M-924.08,1410.761a6.48,6.48,0,0,1-2.651.534,4.385,4.385,0,0,1-4.6-4.71,4.7,4.7,0,0,1,4.958-4.92,5.281,5.281,0,0,1,2.326.5l-.381,1.278a4.117,4.117,0,0,0-1.945-.439,3.2,3.2,0,0,0-3.261,3.49,3.165,3.165,0,0,0,3.2,3.452,4.8,4.8,0,0,0,2.06-.439Z" transform="translate(1096.855 -1398.023)"/>
        <path id="Path_16" data-name="Path 16" d="M-901.285,1394.782a1,1,0,0,1-1.068,1.029.987.987,0,0,1-1.011-1.029,1.023,1.023,0,0,1,1.049-1.049A1.007,1.007,0,0,1-901.285,1394.782Zm-1.869,11.823v-9.229h1.678v9.229Z" transform="translate(1081.06 -1393.542)"/>
        <path id="Path_17" data-name="Path 17" d="M-885.283,1406.775a2.948,2.948,0,0,0,3.165,3.2,6,6,0,0,0,2.555-.477l.306,1.2a7.518,7.518,0,0,1-3.089.591,4.3,4.3,0,0,1-4.539-4.672c0-2.784,1.64-4.958,4.329-4.958,3.032,0,3.814,2.631,3.814,4.328a4.067,4.067,0,0,1-.057.782Zm4.92-1.2a2.382,2.382,0,0,0-2.326-2.707,2.748,2.748,0,0,0-2.574,2.707Z" transform="translate(1071.752 -1398.023)"/>
        <path id="Path_18" data-name="Path 18" d="M-856.216,1404.736c0-1.087-.019-2.022-.077-2.88h1.469l.076,1.831h.057a2.791,2.791,0,0,1,2.574-2.021,3.376,3.376,0,0,1,.457.038v1.583a2.6,2.6,0,0,0-.572-.038,2.337,2.337,0,0,0-2.251,2.136,5.065,5.065,0,0,0-.057.782v4.92h-1.678Z" transform="translate(1054.472 -1398.023)"/>
        <path id="Path_19" data-name="Path 19" d="M-827.461,1406.394a4.521,4.521,0,0,1-4.6,4.9,4.4,4.4,0,0,1-4.424-4.748,4.511,4.511,0,0,1,4.576-4.882C-829.253,1401.665-827.461,1403.591-827.461,1406.394Zm-7.3.1c0,2.021,1.145,3.547,2.784,3.547,1.6,0,2.8-1.507,2.8-3.585,0-1.564-.782-3.527-2.766-3.527C-833.907,1402.924-834.765,1404.755-834.765,1406.49Z" transform="translate(1043.281 -1398.023)"/>
        <path id="Path_20" data-name="Path 20" d="M-804.656,1409.388a4.74,4.74,0,0,0,2.231.648c1.2,0,1.773-.591,1.773-1.373,0-.8-.477-1.221-1.7-1.678-1.678-.61-2.46-1.506-2.46-2.613,0-1.488,1.22-2.708,3.185-2.708a4.285,4.285,0,0,1,2.25.572l-.4,1.22a3.582,3.582,0,0,0-1.888-.552c-.992,0-1.526.572-1.526,1.258,0,.763.534,1.106,1.735,1.583,1.583.591,2.422,1.392,2.422,2.765,0,1.64-1.278,2.785-3.432,2.785a5.266,5.266,0,0,1-2.594-.648Z" transform="translate(1025.531 -1398.023)"/>
      </g>
      <g id="Group_3" data-name="Group 3" transform="translate(-1288.65 1130.647)">
        <path id="Path_21" data-name="Path 21" d="M-912.409,1137.9a27.184,27.184,0,0,0-18.649-7.252,27.187,27.187,0,0,0-18.648,7.252,23.977,23.977,0,0,0-7.724,17.514,23.972,23.972,0,0,0,7.724,17.511,27.183,27.183,0,0,0,18.648,7.253,27.18,27.18,0,0,0,18.649-7.253,23.965,23.965,0,0,0,7.723-17.511A23.971,23.971,0,0,0-912.409,1137.9Zm5.036,20.447h-2.049v-12.46a21.215,21.215,0,0,1,2.258,9.528A21.32,21.32,0,0,1-907.373,1158.346Zm-29.157,17.113h2.379v2.2q-1.21-.147-2.379-.405Zm-2.211,1.2a24.576,24.576,0,0,1-3.047-1.2h3.047Zm-6.624-3.273a23.794,23.794,0,0,1-2.1-1.67h9.478v0h10.445a9.407,9.407,0,0,0,6.078-2.3,8,8,0,0,0,2.7-6,8.312,8.312,0,0,0-3.008-6.805l-1.6-1.1a8.388,8.388,0,0,0,4.422-7.841,8.973,8.973,0,0,0-1.106-4.384,8.1,8.1,0,0,0-7.491-4.095h-13.173v-1.671h11.7c7.613,0,11.851,3.632,11.851,10.5a10.956,10.956,0,0,1-1.549,5.826l-.546.808-.728.919.8.75,1.168,1.268c.735.868,1.2,2.635,1.1,5.421-.236,6.741-4.3,10.38-12.1,10.38Zm-9.56-18.914a21.264,21.264,0,0,1,2.753-9.563v9.563Zm27.2,2.074c4.113,0,6.754,2.652,6.754,6.864a5.758,5.758,0,0,1-3.193,5.3,6.8,6.8,0,0,1-3.378.866h-13.2V1160.5h2.027v7.519h10.256c2.394,0,3.989-.806,4.848-2.479a4.692,4.692,0,0,0,.553-2.366c0-3-2.147-4.842-5.4-4.842h-14.432v.011h-11.848c-.083-.594-.147-1.193-.179-1.8Zm-8.8-21.1v-1.871q1.168-.257,2.379-.4v2.276Zm-2.211,0h-1.975v-.555q.966-.4,1.975-.723Zm-1.975,17.356h12.254c3.254,0,5.217-1.73,5.217-4.785a5.177,5.177,0,0,0-1.841-4.037,5.455,5.455,0,0,0-3.376-1.1h-10.256v7.841h-2v-9.457h13.173a6.22,6.22,0,0,1,3.07.864,6.468,6.468,0,0,1,3.254,5.538c0,3.977-2.579,6.8-6.507,6.8h-12.989Zm4.208-2.077V1144.9h8.047a2.83,2.83,0,0,1,3.008,3.115c0,1.787-.985,2.708-3.008,2.708Zm-6.42,3.75h-2.557v-16.944a24.156,24.156,0,0,1,2.557-1.587Zm6.42,6h8.047c2.147,0,3.19.922,3.19,2.709,0,1.846-1.043,2.769-3.19,2.769h-8.047Zm-6.385.035v1.719h-10.935c-.191-.563-.355-1.137-.5-1.719Zm0,3.875v1.489H-952.2q-.41-.729-.763-1.489Zm0,3.647v1.558h-6.689q-.654-.753-1.239-1.558Zm25.728-12.516a11.422,11.422,0,0,0,1.6-3.389v6.107A10.28,10.28,0,0,0-917.166,1155.509Zm1.6-11.716a10.793,10.793,0,0,0-2.5-4.5v-2.7a23.957,23.957,0,0,1,2.5,1.75Zm-4.708-6.295a12.474,12.474,0,0,0-2.488-1.159v-1.975a24.488,24.488,0,0,1,2.488,1.026Zm-4.7-1.72a19.374,19.374,0,0,0-2.487-.293v-2.258a25.054,25.054,0,0,1,2.487.483Zm-2.487,39.631a20.31,20.31,0,0,0,2.487-.32v2.026a25.054,25.054,0,0,1-2.487.483Zm4.7-.888a13.544,13.544,0,0,0,2.488-1.119v2.033a24.6,24.6,0,0,1-2.488,1.026Zm4.7-2.793.012-.012h3.4a23.832,23.832,0,0,1-3.415,2.524Zm1.694-2.144a10.952,10.952,0,0,0,.762-1.558h4.314q-.584.8-1.239,1.558Zm1.394-3.716a14.09,14.09,0,0,0,.208-1.489h5.616q-.353.76-.763,1.489Zm.241-3.645a13.824,13.824,0,0,0-.19-1.719h7.136c-.144.582-.307,1.156-.5,1.719Zm3.1-19.866v15.991h-1.725v-18A22.945,22.945,0,0,1-911.631,1142.356Zm-18.039-9.342v2.429h-2.27v-2.448c.293-.01.587-.021.883-.021C-930.592,1132.973-930.13,1132.989-929.671,1133.013Zm-18.284,6.533c.085-.079.174-.155.26-.233v15.158h-2.268V1141.7A23.036,23.036,0,0,1-947.955,1139.547Zm16.014,38.284v-2.371h2.27v2.351c-.46.025-.921.041-1.387.041C-931.354,1177.851-931.648,1177.841-931.941,1177.83Z" transform="translate(1088.532 -1130.647)" fill="#003057"/>
        <g id="Group_2" data-name="Group 2" transform="translate(0 1.164)">
          <path id="Path_22" data-name="Path 22" d="M-1227.57,1148.027a14.662,14.662,0,0,0-.654-4.208,9.692,9.692,0,0,0-2.323-3.932,12.542,12.542,0,0,0-4.547-2.888,20.174,20.174,0,0,0-7.327-1.136h-16.29v43.5h6.281v-19.167h10.009a20.141,20.141,0,0,0,7.327-1.137,12.513,12.513,0,0,0,4.547-2.888,9.683,9.683,0,0,0,2.323-3.931A14.66,14.66,0,0,0-1227.57,1148.027Zm-7.523,3.594a5.741,5.741,0,0,1-2.257,2.12,10.2,10.2,0,0,1-3.205,1.014,23.853,23.853,0,0,1-3.631.277h-8.242v-14.007h8.242a23.915,23.915,0,0,1,3.631.276,10.208,10.208,0,0,1,3.205,1.014,5.743,5.743,0,0,1,2.257,2.119,6.787,6.787,0,0,1,.851,3.594A6.783,6.783,0,0,1-1235.093,1151.621Z" transform="translate(1258.709 -1134.757)" fill="#003057" stroke="#003057" stroke-miterlimit="10" stroke-width="3"/>
          <path id="Path_23" data-name="Path 23" d="M-1168.343,1135.863l-20.411,43.5h7.327l4.58-10.751h22.046l4.645,10.751h7.327l-19.822-43.5Zm-6.28,27.584,8.766-19.966h.131l8.635,19.966Z" transform="translate(1219.194 -1134.757)" fill="#003057" stroke="#003057" stroke-miterlimit="10" stroke-width="3"/>
          <path id="Path_24" data-name="Path 24" d="M-1046.325,1153.6v5.529h10.271v12.1a18.46,18.46,0,0,1-5.07,1.69,32.755,32.755,0,0,1-6.313.583,18.861,18.861,0,0,1-7.131-1.321,17.557,17.557,0,0,1-5.691-3.656,16.881,16.881,0,0,1-3.794-5.5,17.017,17.017,0,0,1-1.374-6.85,18.244,18.244,0,0,1,1.243-6.728,16.242,16.242,0,0,1,3.533-5.5,17.073,17.073,0,0,1,5.5-3.717,18,18,0,0,1,7.2-1.382,22.209,22.209,0,0,1,6.738,1.014,16.656,16.656,0,0,1,6.084,3.594l4.449-4.485a19.429,19.429,0,0,0-6.8-4.147,30.571,30.571,0,0,0-10.467-1.5,26.394,26.394,0,0,0-9.747,1.75,22.836,22.836,0,0,0-7.621,4.823,22.2,22.2,0,0,0-4.972,7.249,22.585,22.585,0,0,0-1.8,9.031,23.248,23.248,0,0,0,1.668,8.754,21.291,21.291,0,0,0,4.842,7.28,23.129,23.129,0,0,0,7.785,4.977,28.1,28.1,0,0,0,10.5,1.843,44.065,44.065,0,0,0,4.481-.246,40.5,40.5,0,0,0,4.71-.768,43.083,43.083,0,0,0,4.481-1.26,21.757,21.757,0,0,0,3.859-1.72V1153.6Z" transform="translate(1153.304 -1133.322)" fill="#003057" stroke="#003057" stroke-miterlimit="10" stroke-width="3"/>
        </g>
      </g>
      <g id="Group_10" data-name="Group 10" transform="translate(-1306.858 1183.599)">
        <g id="Group_4" data-name="Group 4" transform="translate(0 1.125)">
          <path id="Path_25" data-name="Path 25" d="M-1300.551,1254.918h16.366a22.449,22.449,0,0,1,5.688.687,13.8,13.8,0,0,1,4.525,2.03,9.641,9.641,0,0,1,2.994,3.437,10.412,10.412,0,0,1,1.1,4.9,8.707,8.707,0,0,1-2.262,6.216,13.306,13.306,0,0,1-5.854,3.53v.125a10.462,10.462,0,0,1,3.992,1.03,10.843,10.843,0,0,1,3.227,2.374,11.293,11.293,0,0,1,2.162,3.405,10.875,10.875,0,0,1,.8,4.186,10.5,10.5,0,0,1-1.3,5.279,11.622,11.622,0,0,1-3.56,3.842,16.958,16.958,0,0,1-5.255,2.374,24.524,24.524,0,0,1-6.453.813h-16.166Zm6.387,18.368h8.715a16.059,16.059,0,0,0,3.393-.344,7.857,7.857,0,0,0,2.794-1.156,5.975,5.975,0,0,0,1.9-2.062,6.2,6.2,0,0,0,.7-3.061,6.49,6.49,0,0,0-1.8-4.56q-1.8-1.936-5.655-1.937h-10.046Zm0,20.617h9.38a20.606,20.606,0,0,0,3.226-.281,10.059,10.059,0,0,0,3.294-1.125,8.015,8.015,0,0,0,2.594-2.28,6.25,6.25,0,0,0,1.064-3.811,6.8,6.8,0,0,0-2.727-5.9,12.383,12.383,0,0,0-7.385-1.969h-9.447Z" transform="translate(1300.551 -1254.918)" fill="#c91430" stroke="#c91430" stroke-miterlimit="10" stroke-width="3"/>
        </g>
        <g id="Group_5" data-name="Group 5" transform="translate(38.642 1.125)">
          <path id="Path_26" data-name="Path 26" d="M-1211.75,1254.918h6.387v44.233h-6.387Z" transform="translate(1211.75 -1254.918)" fill="#c91430" stroke="#c91430" stroke-miterlimit="10" stroke-width="3"/>
        </g>
        <g id="Group_6" data-name="Group 6" transform="translate(50.665 0)">
          <path id="Path_27" data-name="Path 27" d="M-1148.394,1263.017a13.092,13.092,0,0,0-5.056-3.749,15.9,15.9,0,0,0-6.321-1.312,17.9,17.9,0,0,0-7.219,1.406,16.582,16.582,0,0,0-5.52,3.842,17.322,17.322,0,0,0-3.561,5.717,19.376,19.376,0,0,0-1.264,7.029,18.358,18.358,0,0,0,1.2,6.623,16.4,16.4,0,0,0,3.46,5.5,16.2,16.2,0,0,0,5.523,3.748,18.829,18.829,0,0,0,7.384,1.375,15.453,15.453,0,0,0,7.118-1.562,15,15,0,0,0,5.189-4.373l5.389,3.81a20.729,20.729,0,0,1-1.863,1.969,18.6,18.6,0,0,1-3.526,2.561,25.785,25.785,0,0,1-5.288,2.249,23.987,23.987,0,0,1-7.152.968,24.527,24.527,0,0,1-10.079-2,24.329,24.329,0,0,1-7.65-5.248,22.676,22.676,0,0,1-4.824-7.341,21.8,21.8,0,0,1-1.663-8.278,24.53,24.53,0,0,1,1.8-9.465,22.253,22.253,0,0,1,5.023-7.5,22.592,22.592,0,0,1,7.75-4.9,27.471,27.471,0,0,1,9.979-1.75,25.825,25.825,0,0,1,9.147,1.687,17.023,17.023,0,0,1,7.352,5.186Z" transform="translate(1184.12 -1252.333)" fill="#c91430" stroke="#c91430" stroke-miterlimit="10" stroke-width="3"/>
        </g>
        <g id="Group_7" data-name="Group 7" transform="translate(93.955 0)">
          <path id="Path_28" data-name="Path 28" d="M-1048.913,1263.017a13.071,13.071,0,0,0-5.056-3.749,15.886,15.886,0,0,0-6.32-1.312,17.889,17.889,0,0,0-7.218,1.406,16.582,16.582,0,0,0-5.522,3.842,17.3,17.3,0,0,0-3.559,5.717,19.376,19.376,0,0,0-1.264,7.029,18.32,18.32,0,0,0,1.2,6.623,16.349,16.349,0,0,0,3.46,5.5,16.186,16.186,0,0,0,5.521,3.748,18.829,18.829,0,0,0,7.384,1.375,15.462,15.462,0,0,0,7.119-1.562,15.009,15.009,0,0,0,5.188-4.373l5.388,3.81a20.591,20.591,0,0,1-1.862,1.969,18.572,18.572,0,0,1-3.526,2.561,25.775,25.775,0,0,1-5.289,2.249,23.982,23.982,0,0,1-7.151.968,24.526,24.526,0,0,1-10.079-2,24.35,24.35,0,0,1-7.651-5.248,22.7,22.7,0,0,1-4.823-7.341,21.811,21.811,0,0,1-1.663-8.278,24.514,24.514,0,0,1,1.8-9.465,22.25,22.25,0,0,1,5.022-7.5,22.584,22.584,0,0,1,7.751-4.9,27.463,27.463,0,0,1,9.979-1.75,25.827,25.827,0,0,1,9.147,1.687,17.022,17.022,0,0,1,7.351,5.186Z" transform="translate(1084.638 -1252.333)" fill="#c91430" stroke="#c91430" stroke-miterlimit="10" stroke-width="3"/>
        </g>
        <g id="Group_8" data-name="Group 8" transform="translate(137.245 0)">
          <path id="Path_29" data-name="Path 29" d="M-960.609,1298.815a26.838,26.838,0,0,1-9.912-1.78,23.21,23.21,0,0,1-7.75-4.9,22.542,22.542,0,0,1-5.056-7.372,22.949,22.949,0,0,1-1.83-9.183,22.958,22.958,0,0,1,1.83-9.184,22.566,22.566,0,0,1,5.056-7.372,23.226,23.226,0,0,1,7.75-4.9,26.835,26.835,0,0,1,9.912-1.781,26.84,26.84,0,0,1,9.914,1.781,23.227,23.227,0,0,1,7.75,4.9,22.58,22.58,0,0,1,5.057,7.372,22.974,22.974,0,0,1,1.829,9.184,22.965,22.965,0,0,1-1.829,9.183,22.556,22.556,0,0,1-5.057,7.372,23.21,23.21,0,0,1-7.75,4.9A26.842,26.842,0,0,1-960.609,1298.815Zm0-5.623a18.306,18.306,0,0,0,7.319-1.406,17.343,17.343,0,0,0,5.588-3.78,16.509,16.509,0,0,0,3.593-5.592,18.548,18.548,0,0,0,1.265-6.841,18.56,18.56,0,0,0-1.265-6.842,16.536,16.536,0,0,0-3.593-5.592,17.372,17.372,0,0,0-5.588-3.78,18.308,18.308,0,0,0-7.319-1.406,18.3,18.3,0,0,0-7.317,1.406,17.361,17.361,0,0,0-5.589,3.78,16.521,16.521,0,0,0-3.593,5.592,18.542,18.542,0,0,0-1.264,6.842,18.53,18.53,0,0,0,1.264,6.841,16.494,16.494,0,0,0,3.593,5.592,17.333,17.333,0,0,0,5.589,3.78A18.293,18.293,0,0,0-960.609,1293.193Z" transform="translate(985.157 -1252.333)" fill="#c91430" stroke="#c91430" stroke-miterlimit="10" stroke-width="3"/>
        </g>
        <g id="Group_9" data-name="Group 9" transform="translate(188.861 0)">
          <path id="Path_30" data-name="Path 30" d="M-861.285,1288.444a10.324,10.324,0,0,0,4.423,3.592,13.946,13.946,0,0,0,5.556,1.156,11.977,11.977,0,0,0,3.26-.469,10.175,10.175,0,0,0,3.027-1.406,7.865,7.865,0,0,0,2.229-2.312,5.858,5.858,0,0,0,.865-3.186,4.646,4.646,0,0,0-1.73-3.9,15.267,15.267,0,0,0-4.291-2.249q-2.562-.9-5.589-1.749a23.487,23.487,0,0,1-5.587-2.343,13.263,13.263,0,0,1-4.291-4.03,11.944,11.944,0,0,1-1.73-6.842,10.873,10.873,0,0,1,.9-4.123,11.452,11.452,0,0,1,2.827-4,15.724,15.724,0,0,1,4.957-3.03,19.5,19.5,0,0,1,7.284-1.218,26.988,26.988,0,0,1,7.385,1,12.734,12.734,0,0,1,6.187,4.061l-5.19,4.436a8.464,8.464,0,0,0-3.393-2.811,11.311,11.311,0,0,0-4.989-1.062,12.809,12.809,0,0,0-4.424.656,8.019,8.019,0,0,0-2.828,1.687,5.911,5.911,0,0,0-1.5,2.218,6.412,6.412,0,0,0-.432,2.186,5.389,5.389,0,0,0,1.73,4.311,13.593,13.593,0,0,0,4.291,2.437,53.955,53.955,0,0,0,5.587,1.687,24.869,24.869,0,0,1,5.589,2.093,12.774,12.774,0,0,1,4.292,3.624,10.177,10.177,0,0,1,1.73,6.279,12.538,12.538,0,0,1-1.3,5.748,12.867,12.867,0,0,1-3.492,4.311,15.816,15.816,0,0,1-5.19,2.686,21.269,21.269,0,0,1-6.386.937,24.55,24.55,0,0,1-8.582-1.5,14.029,14.029,0,0,1-6.453-4.623Z" transform="translate(866.54 -1252.333)" fill="#c91430" stroke="#c91430" stroke-miterlimit="10" stroke-width="3"/>
        </g>
      </g>
    </g>
  </g>
</svg>
