<svg xmlns="http://www.w3.org/2000/svg" width="335.17" height="67.449" viewBox="0 0 335.17 67.449">
  <g id="Group_2285" data-name="Group 2285" transform="translate(-4531 -590.704)">
    <g id="Group_2277" data-name="Group 2277" transform="translate(4574.009 177.995)">
      <path id="Path_441" data-name="Path 441" d="M-42.619,477.892a4.58,4.58,0,0,0,2.635.852,2.161,2.161,0,0,0,2.4-2.228c0-1.2-.613-1.919-2.16-2.578-1.87-.775-3.025-1.9-3.025-3.721a3.476,3.476,0,0,1,3.7-3.546,4.628,4.628,0,0,1,2.516.64l-.408,1.376a3.85,3.85,0,0,0-2.159-.62,1.952,1.952,0,0,0-2.159,1.957c0,1.22.7,1.821,2.278,2.519,1.938.853,2.907,1.918,2.907,3.837a3.643,3.643,0,0,1-3.994,3.778,5.365,5.365,0,0,1-2.924-.852Z" fill="#fff"/>
      <path id="Path_442" data-name="Path 442" d="M-23.68,475.566c.033,2.306,1.308,3.255,2.821,3.255a4.774,4.774,0,0,0,2.277-.484l.273,1.221a6.01,6.01,0,0,1-2.754.6c-2.532,0-4.046-1.918-4.046-4.747s1.462-5.039,3.859-5.039c2.7,0,3.4,2.675,3.4,4.4a4.838,4.838,0,0,1-.051.794Zm4.385-1.221c.017-1.066-.391-2.752-2.074-2.752-1.53,0-2.175,1.57-2.3,2.752Z" fill="#fff"/>
      <path id="Path_443" data-name="Path 443" d="M-6.51,473.492c0-1.1-.018-2.053-.069-2.925H-5.27l.068,1.86h.051a2.568,2.568,0,0,1,2.3-2.055,2.727,2.727,0,0,1,.408.039v1.609a2.037,2.037,0,0,0-.51-.039c-1.054,0-1.8.891-2,2.171a5.627,5.627,0,0,0-.052.793v5h-1.5Z" fill="#fff"/>
      <path id="Path_444" data-name="Path 444" d="M9.537,470.567l1.615,5.251c.272.872.493,1.647.663,2.422h.051c.187-.775.425-1.55.7-2.422l1.6-5.251h1.563l-3.229,9.378H11.067l-3.128-9.378Z" fill="#fff"/>
      <path id="Path_445" data-name="Path 445" d="M28.288,467.931a.933.933,0,1,1-1.853,0,.984.984,0,0,1,.936-1.067A.969.969,0,0,1,28.288,467.931Zm-1.665,12.014v-9.378h1.5v9.378Z" fill="#fff"/>
      <path id="Path_446" data-name="Path 446" d="M45.951,479.616a5.2,5.2,0,0,1-2.364.542c-2.481,0-4.1-1.918-4.1-4.786,0-2.887,1.734-5,4.42-5a4.238,4.238,0,0,1,2.074.5l-.341,1.3a3.29,3.29,0,0,0-1.733-.446c-1.887,0-2.907,1.608-2.907,3.547,0,2.169,1.224,3.506,2.856,3.506a3.857,3.857,0,0,0,1.836-.445Z" fill="#fff"/>
      <path id="Path_447" data-name="Path 447" d="M58.853,467.931a.933.933,0,1,1-1.853,0,.985.985,0,0,1,.936-1.067A.969.969,0,0,1,58.853,467.931Zm-1.665,12.014v-9.378h1.495v9.378Z" fill="#fff"/>
      <path id="Path_448" data-name="Path 448" d="M78.1,475.178c0,3.469-2.125,4.98-4.1,4.98-2.209,0-3.944-1.86-3.944-4.825,0-3.12,1.819-4.961,4.08-4.961C76.5,470.372,78.1,472.329,78.1,475.178Zm-6.511.1c0,2.053,1.02,3.6,2.482,3.6,1.428,0,2.5-1.531,2.5-3.644,0-1.588-.7-3.584-2.465-3.584C72.351,471.652,71.586,473.512,71.586,475.276Z" fill="#fff"/>
      <path id="Path_449" data-name="Path 449" d="M89.267,478.221a3.863,3.863,0,0,0,1.988.659c1.072,0,1.581-.6,1.581-1.4,0-.815-.424-1.241-1.512-1.706-1.5-.62-2.193-1.531-2.193-2.655a2.691,2.691,0,0,1,2.838-2.752,3.458,3.458,0,0,1,2.006.582l-.356,1.241a2.911,2.911,0,0,0-1.683-.563,1.248,1.248,0,0,0-1.36,1.279c0,.775.475,1.124,1.547,1.609,1.411.6,2.159,1.414,2.159,2.809a2.761,2.761,0,0,1-3.06,2.829,4.251,4.251,0,0,1-2.312-.658Z" fill="#fff"/>
      <path id="Path_450" data-name="Path 450" d="M118.812,466.884h6.171V468.3h-4.675v4.341h4.317v1.395h-4.317v5.91h-1.5Z" fill="#fff"/>
      <path id="Path_451" data-name="Path 451" d="M137.767,467.931a.933.933,0,1,1-1.852,0,.984.984,0,0,1,.935-1.067A.969.969,0,0,1,137.767,467.931ZM136.1,479.945v-9.378H137.6v9.378Z" fill="#fff"/>
      <path id="Path_452" data-name="Path 452" d="M149.566,473.105c0-.989-.018-1.764-.068-2.538h1.326l.085,1.549h.034a3.006,3.006,0,0,1,2.72-1.744c1.138,0,2.906.776,2.906,3.992v5.581h-1.5v-5.406c0-1.511-.493-2.771-1.9-2.771a2.225,2.225,0,0,0-2.005,1.744,2.732,2.732,0,0,0-.1.794v5.639h-1.5Z" fill="#fff"/>
      <path id="Path_453" data-name="Path 453" d="M174.266,477.7a17.9,17.9,0,0,0,.119,2.248h-1.343l-.119-1.181h-.051a2.959,2.959,0,0,1-2.516,1.394,2.514,2.514,0,0,1-2.516-2.693c0-2.268,1.768-3.508,4.947-3.488v-.194c0-.755-.187-2.171-1.87-2.151a3.619,3.619,0,0,0-2.159.7l-.34-1.142a4.833,4.833,0,0,1,2.72-.815c2.516,0,3.128,1.957,3.128,3.818Zm-1.445-2.538c-1.632-.039-3.485.29-3.485,2.113,0,1.124.646,1.627,1.394,1.627a2.113,2.113,0,0,0,2.023-1.57,2.171,2.171,0,0,0,.068-.543Z" fill="#fff"/>
      <path id="Path_454" data-name="Path 454" d="M186.167,473.105c0-.989-.018-1.764-.069-2.538h1.326l.085,1.549h.034a3.009,3.009,0,0,1,2.72-1.744c1.139,0,2.906.776,2.906,3.992v5.581h-1.5v-5.406c0-1.511-.492-2.771-1.9-2.771a2.226,2.226,0,0,0-2.006,1.744,2.768,2.768,0,0,0-.1.794v5.639h-1.495Z" fill="#fff"/>
      <path id="Path_455" data-name="Path 455" d="M210.952,479.616a5.2,5.2,0,0,1-2.364.542c-2.481,0-4.1-1.918-4.1-4.786,0-2.887,1.734-5,4.42-5a4.238,4.238,0,0,1,2.074.5l-.34,1.3a3.3,3.3,0,0,0-1.734-.446c-1.887,0-2.907,1.608-2.907,3.547,0,2.169,1.224,3.506,2.856,3.506a3.857,3.857,0,0,0,1.836-.445Z" fill="#fff"/>
      <path id="Path_456" data-name="Path 456" d="M223.855,467.931a.933.933,0,1,1-1.853,0,.984.984,0,0,1,.936-1.067A.969.969,0,0,1,223.855,467.931Zm-1.665,12.014v-9.378h1.495v9.378Z" fill="#fff"/>
      <path id="Path_457" data-name="Path 457" d="M236.487,475.566c.033,2.306,1.308,3.255,2.821,3.255a4.774,4.774,0,0,0,2.277-.484l.273,1.221a6.011,6.011,0,0,1-2.754.6c-2.532,0-4.046-1.918-4.046-4.747s1.462-5.039,3.859-5.039c2.7,0,3.4,2.675,3.4,4.4a4.728,4.728,0,0,1-.051.794Zm4.385-1.221c.017-1.066-.391-2.752-2.074-2.752-1.53,0-2.175,1.57-2.295,2.752Z" fill="#fff"/>
      <path id="Path_458" data-name="Path 458" d="M253.657,473.492c0-1.1-.018-2.053-.069-2.925H254.9l.068,1.86h.051a2.568,2.568,0,0,1,2.295-2.055,2.727,2.727,0,0,1,.408.039v1.609a2.037,2.037,0,0,0-.51-.039c-1.054,0-1.8.891-2.005,2.171a5.629,5.629,0,0,0-.052.793v5h-1.495Z" fill="#fff"/>
      <path id="Path_459" data-name="Path 459" d="M275.977,475.178c0,3.469-2.125,4.98-4.1,4.98-2.21,0-3.944-1.86-3.944-4.825,0-3.12,1.819-4.961,4.08-4.961C274.378,470.372,275.977,472.329,275.977,475.178Zm-6.511.1c0,2.053,1.02,3.6,2.482,3.6,1.427,0,2.5-1.531,2.5-3.644,0-1.588-.7-3.584-2.465-3.584C270.231,471.652,269.466,473.512,269.466,475.276Z" fill="#fff"/>
      <path id="Path_460" data-name="Path 460" d="M287.146,478.221a3.863,3.863,0,0,0,1.988.659c1.072,0,1.581-.6,1.581-1.4,0-.815-.424-1.241-1.512-1.706-1.5-.62-2.193-1.531-2.193-2.655a2.691,2.691,0,0,1,2.838-2.752,3.458,3.458,0,0,1,2.006.582L291.5,472.2a2.911,2.911,0,0,0-1.683-.563,1.248,1.248,0,0,0-1.36,1.279c0,.775.475,1.124,1.546,1.609,1.412.6,2.16,1.414,2.16,2.809a2.761,2.761,0,0,1-3.06,2.829,4.252,4.252,0,0,1-2.312-.658Z" fill="#fff"/>
    </g>
    <path id="Path_461" data-name="Path 461" d="M102.649,419.015a22.869,22.869,0,0,0-30.9,0,19.65,19.65,0,0,0,0,29.021,22.869,22.869,0,0,0,30.9,0,19.652,19.652,0,0,0,0-29.021Zm4.172,16.942h-1.7V425.632a17.461,17.461,0,0,1,1.7,10.325Zm-24.159,14.18h1.972v1.821q-1-.121-1.972-.336Zm-1.831.993a20.37,20.37,0,0,1-2.525-.993h2.525Zm-5.489-2.712a19.828,19.828,0,0,1-1.741-1.384h7.854v0h8.654a7.79,7.79,0,0,0,5.036-1.91,6.628,6.628,0,0,0,2.24-4.968,6.887,6.887,0,0,0-2.492-5.639l-1.324-.908a6.95,6.95,0,0,0,3.663-6.5,7.431,7.431,0,0,0-.916-3.632,6.707,6.707,0,0,0-6.207-3.393H79.194V418.7h9.694c6.309,0,9.82,3.01,9.82,8.7a9.077,9.077,0,0,1-1.284,4.828l-.452.669-.6.762.66.621.967,1.05c.609.719,1,2.184.915,4.493-.2,5.585-3.562,8.6-10.023,8.6Zm-7.921-15.672a17.606,17.606,0,0,1,2.281-7.923v7.923Zm22.536,1.719c3.408,0,5.6,2.2,5.6,5.687a4.77,4.77,0,0,1-2.645,4.394,5.636,5.636,0,0,1-2.8.718H79.17v-7.52h1.68v6.23h8.5c1.983,0,3.305-.668,4.017-2.055a3.89,3.89,0,0,0,.458-1.96c0-2.484-1.779-4.012-4.475-4.012H77.39v.01H67.573c-.068-.492-.122-.989-.148-1.492Zm-7.295-17.486v-1.551q.969-.213,1.972-.335v1.886Zm-1.831,0H79.194v-.46q.8-.333,1.637-.6ZM79.194,431.36H89.348c2.7,0,4.322-1.433,4.322-3.965a4.29,4.29,0,0,0-1.525-3.345,4.523,4.523,0,0,0-2.8-.908h-8.5v6.5H79.194V421.8H90.109a5.15,5.15,0,0,1,2.544.716,5.36,5.36,0,0,1,2.7,4.589c0,3.295-2.137,5.637-5.392,5.637H79.194Zm3.486-1.72v-4.825h6.668a2.344,2.344,0,0,1,2.492,2.58c0,1.481-.816,2.245-2.492,2.245Zm-5.318,3.106h-2.12V418.707a20.016,20.016,0,0,1,2.12-1.315Zm5.318,4.968h6.668c1.779,0,2.643.765,2.643,2.245,0,1.53-.864,2.294-2.643,2.294H82.68Zm-5.29.03v1.424H68.33c-.158-.467-.294-.942-.413-1.424Zm0,3.21v1.234H69.679q-.339-.6-.632-1.234Zm0,3.022v1.291H71.848q-.542-.624-1.027-1.291Zm21.318-10.371a9.454,9.454,0,0,0,1.325-2.808v5.06A8.538,8.538,0,0,0,98.708,433.605Zm1.325-9.708a8.946,8.946,0,0,0-2.069-3.731v-2.24a19.905,19.905,0,0,1,2.069,1.45Zm-3.9-5.215a10.318,10.318,0,0,0-2.061-.961v-1.636a20.405,20.405,0,0,1,2.061.85Zm-3.893-1.426a16.222,16.222,0,0,0-2.061-.243v-1.87a20.79,20.79,0,0,1,2.061.4Zm-2.061,32.838a17.011,17.011,0,0,0,2.061-.265v1.679a20.782,20.782,0,0,1-2.061.4Zm3.893-.736a11.124,11.124,0,0,0,2.061-.927v1.685a20.392,20.392,0,0,1-2.061.849Zm3.893-2.314.01-.01h2.819a19.749,19.749,0,0,1-2.829,2.091Zm1.4-1.777a9.2,9.2,0,0,0,.632-1.291h3.574q-.484.667-1.027,1.291Zm1.155-3.079a11.679,11.679,0,0,0,.172-1.234h4.654q-.294.63-.633,1.234Zm.2-3.02a11.485,11.485,0,0,0-.158-1.424h5.913c-.119.482-.254.957-.412,1.424Zm2.571-16.461v13.25h-1.429V421.038A19.011,19.011,0,0,1,103.293,422.707Zm-14.947-7.741v2.013H86.465V414.95c.243-.008.486-.017.732-.017C87.583,414.933,87.966,414.946,88.346,414.966ZM73.2,420.379c.071-.066.145-.128.216-.193v12.56H71.533V422.161A19.294,19.294,0,0,1,73.2,420.379ZM86.465,452.1v-1.964h1.881v1.948c-.38.02-.763.033-1.149.033C86.951,452.118,86.708,452.109,86.465,452.1Z" transform="translate(4574.009 177.995)" fill="#fff" stroke="#fff" stroke-miterlimit="10" stroke-width="0.5"/>
    <g id="Group_2278" data-name="Group 2278" transform="translate(4574.009 177.995)">
      <path id="Path_462" data-name="Path 462" d="M-14.122,424.852a11.751,11.751,0,0,0-.525-3.375,7.78,7.78,0,0,0-1.862-3.154,10.073,10.073,0,0,0-3.647-2.316,16.181,16.181,0,0,0-5.876-.911H-39.1v34.883h5.037V434.607h8.027a16.157,16.157,0,0,0,5.876-.912,10.045,10.045,0,0,0,3.647-2.315,7.78,7.78,0,0,0,1.862-3.154A11.75,11.75,0,0,0-14.122,424.852Zm-6.034,2.882a4.611,4.611,0,0,1-1.81,1.7,8.156,8.156,0,0,1-2.571.812,19.125,19.125,0,0,1-2.912.222h-6.61V419.235h6.61a19.253,19.253,0,0,1,2.912.221,8.183,8.183,0,0,1,2.571.813,4.6,4.6,0,0,1,1.81,1.7,5.444,5.444,0,0,1,.682,2.883A5.443,5.443,0,0,1-20.156,427.734Z" fill="#fff" stroke="#fff" stroke-miterlimit="10" stroke-width="3"/>
      <path id="Path_463" data-name="Path 463" d="M1.687,415.1l-16.369,34.883h5.876l3.672-8.622H12.547l3.725,8.622h5.876L6.251,415.1ZM-3.35,437.218,3.681,421.2h.105l6.925,16.013Z" fill="#fff" stroke="#fff" stroke-miterlimit="10" stroke-width="3"/>
      <path id="Path_464" data-name="Path 464" d="M46.7,430.468V434.9h8.237v9.706a14.77,14.77,0,0,1-4.065,1.356,26.3,26.3,0,0,1-5.063.468,15.11,15.11,0,0,1-5.719-1.06,14.074,14.074,0,0,1-4.564-2.931,13.591,13.591,0,0,1-4.145-9.9,14.623,14.623,0,0,1,1-5.4,13.01,13.01,0,0,1,2.833-4.409,13.681,13.681,0,0,1,4.407-2.981,14.43,14.43,0,0,1,5.771-1.108,17.815,17.815,0,0,1,5.4.812,13.36,13.36,0,0,1,4.879,2.883l3.568-3.6a15.573,15.573,0,0,0-5.457-3.326,24.531,24.531,0,0,0-8.394-1.207,21.163,21.163,0,0,0-7.817,1.4,18.334,18.334,0,0,0-6.113,3.868,17.817,17.817,0,0,0-3.987,5.814,18.115,18.115,0,0,0-1.443,7.243,18.639,18.639,0,0,0,1.338,7.021,17.068,17.068,0,0,0,3.883,5.838,18.561,18.561,0,0,0,6.243,3.991,22.555,22.555,0,0,0,8.421,1.478,35.336,35.336,0,0,0,3.593-.2,32.441,32.441,0,0,0,3.778-.616,34.628,34.628,0,0,0,3.594-1.01,17.423,17.423,0,0,0,3.1-1.38v-17.2Z" fill="#fff" stroke="#fff" stroke-miterlimit="10" stroke-width="3"/>
    </g>
    <g id="Group_2279" data-name="Group 2279" transform="translate(4574.009 177.995)">
      <path id="Path_465" data-name="Path 465" d="M114.4,415.958h13.126a18.008,18.008,0,0,1,4.561.551,11.064,11.064,0,0,1,3.629,1.628,7.736,7.736,0,0,1,2.4,2.756,8.351,8.351,0,0,1,.88,3.933,6.986,6.986,0,0,1-1.814,4.986,10.687,10.687,0,0,1-4.695,2.831v.1a8.385,8.385,0,0,1,3.2.827,8.674,8.674,0,0,1,2.588,1.9,9.074,9.074,0,0,1,1.734,2.73,8.741,8.741,0,0,1,.64,3.357,8.417,8.417,0,0,1-1.04,4.234,9.33,9.33,0,0,1-2.855,3.082,13.632,13.632,0,0,1-4.215,1.9,19.713,19.713,0,0,1-5.175.651H114.4Zm5.123,14.73h6.989a12.892,12.892,0,0,0,2.721-.275,6.283,6.283,0,0,0,2.241-.927,4.809,4.809,0,0,0,1.521-1.654,4.968,4.968,0,0,0,.56-2.455,5.206,5.206,0,0,0-1.441-3.657,5.918,5.918,0,0,0-4.535-1.553h-8.056Zm0,16.535h7.523a16.571,16.571,0,0,0,2.587-.225,8.072,8.072,0,0,0,2.642-.9,6.428,6.428,0,0,0,2.08-1.829,5.015,5.015,0,0,0,.854-3.056,5.458,5.458,0,0,0-2.188-4.735A9.928,9.928,0,0,0,127.1,434.9h-7.576Z" fill="#c91430" stroke="#c91430" stroke-width="1"/>
    </g>
    <g id="Group_2280" data-name="Group 2280" transform="translate(4574.009 177.995)">
      <path id="Path_466" data-name="Path 466" d="M145.391,415.958h5.123v35.474h-5.123Z" fill="#c91430" stroke="#c91430" stroke-width="1"/>
    </g>
    <g id="Group_2281" data-name="Group 2281" transform="translate(4574.009 177.995)">
      <path id="Path_467" data-name="Path 467" d="M183.685,423.624a10.5,10.5,0,0,0-4.055-3.007,12.756,12.756,0,0,0-5.069-1.052,14.342,14.342,0,0,0-5.789,1.128,13.288,13.288,0,0,0-4.428,3.081,13.9,13.9,0,0,0-2.855,4.585A15.531,15.531,0,0,0,160.476,434a14.712,14.712,0,0,0,.96,5.311,13.157,13.157,0,0,0,2.774,4.409,12.982,12.982,0,0,0,4.429,3.006,15.106,15.106,0,0,0,5.922,1.1,12.4,12.4,0,0,0,5.709-1.253,12.036,12.036,0,0,0,4.162-3.507l4.322,3.056a16.684,16.684,0,0,1-1.494,1.578,14.942,14.942,0,0,1-2.828,2.054,20.671,20.671,0,0,1-4.242,1.8,19.218,19.218,0,0,1-5.736.777,19.478,19.478,0,0,1-14.218-5.812,18.2,18.2,0,0,1-3.869-5.888A17.5,17.5,0,0,1,155.033,434a19.674,19.674,0,0,1,1.441-7.591,17.839,17.839,0,0,1,4.028-6.013,18.125,18.125,0,0,1,6.216-3.933,22.022,22.022,0,0,1,8-1.4,20.706,20.706,0,0,1,7.336,1.353,13.658,13.658,0,0,1,5.9,4.158Z" fill="#c91430" stroke="#c91430" stroke-width="1"/>
    </g>
    <g id="Group_2282" data-name="Group 2282" transform="translate(4574.009 177.995)">
      <path id="Path_468" data-name="Path 468" d="M218.4,423.624a10.491,10.491,0,0,0-4.055-3.007,12.752,12.752,0,0,0-5.069-1.052,14.334,14.334,0,0,0-5.788,1.128,13.282,13.282,0,0,0-4.429,3.081,13.867,13.867,0,0,0-2.854,4.585A15.531,15.531,0,0,0,195.194,434a14.69,14.69,0,0,0,.96,5.311,13.128,13.128,0,0,0,2.775,4.409,12.968,12.968,0,0,0,4.428,3.006,15.106,15.106,0,0,0,5.922,1.1,12.405,12.405,0,0,0,5.71-1.253,12.042,12.042,0,0,0,4.161-3.507l4.321,3.056a16.509,16.509,0,0,1-1.493,1.578,14.909,14.909,0,0,1-2.828,2.054,20.671,20.671,0,0,1-4.242,1.8,19.222,19.222,0,0,1-5.736.777,19.482,19.482,0,0,1-14.219-5.812,18.216,18.216,0,0,1-3.868-5.888A17.5,17.5,0,0,1,189.751,434a19.655,19.655,0,0,1,1.441-7.591,17.839,17.839,0,0,1,4.028-6.013,18.116,18.116,0,0,1,6.216-3.933,22.022,22.022,0,0,1,8-1.4,20.711,20.711,0,0,1,7.337,1.353,13.66,13.66,0,0,1,5.9,4.158Z" fill="#c91430" stroke="#c91430" stroke-width="1"/>
    </g>
    <g id="Group_2283" data-name="Group 2283" transform="translate(4574.009 177.995)">
      <path id="Path_469" data-name="Path 469" d="M244.157,452.334a21.525,21.525,0,0,1-7.95-1.428,18.616,18.616,0,0,1-6.215-3.933,18.062,18.062,0,0,1-4.055-5.913,19.212,19.212,0,0,1,0-14.731,18.079,18.079,0,0,1,4.055-5.912,18.616,18.616,0,0,1,6.215-3.933,22.844,22.844,0,0,1,15.9,0,18.641,18.641,0,0,1,6.216,3.933,18.125,18.125,0,0,1,4.055,5.912,19.224,19.224,0,0,1,0,14.731,18.108,18.108,0,0,1-4.055,5.913,18.641,18.641,0,0,1-6.216,3.933A21.525,21.525,0,0,1,244.157,452.334Zm0-4.509a14.672,14.672,0,0,0,5.869-1.128,13.894,13.894,0,0,0,4.482-3.031,13.234,13.234,0,0,0,2.881-4.485,15.35,15.35,0,0,0,0-10.973,13.249,13.249,0,0,0-2.881-4.484,13.911,13.911,0,0,0-4.482-3.031,15.83,15.83,0,0,0-11.737,0,13.915,13.915,0,0,0-4.483,3.031,13.25,13.25,0,0,0-2.881,4.484,15.364,15.364,0,0,0,0,10.973,13.234,13.234,0,0,0,2.881,4.485,13.9,13.9,0,0,0,4.483,3.031A14.66,14.66,0,0,0,244.157,447.825Z" fill="#c91430" stroke="#c91430" stroke-width="1"/>
    </g>
    <g id="Group_2284" data-name="Group 2284" transform="translate(4574.009 177.995)">
      <path id="Path_470" data-name="Path 470" d="M270.08,444.017a8.28,8.28,0,0,0,3.547,2.88,11.181,11.181,0,0,0,4.456.928,9.629,9.629,0,0,0,2.614-.376,8.189,8.189,0,0,0,2.428-1.128,6.312,6.312,0,0,0,1.787-1.854,4.7,4.7,0,0,0,.694-2.555,3.727,3.727,0,0,0-1.387-3.132,12.258,12.258,0,0,0-3.442-1.8q-2.054-.726-4.482-1.4a18.815,18.815,0,0,1-4.481-1.879,10.64,10.64,0,0,1-3.441-3.232,9.575,9.575,0,0,1-1.388-5.487,8.71,8.71,0,0,1,.721-3.306,9.179,9.179,0,0,1,2.267-3.207,12.608,12.608,0,0,1,3.975-2.43,15.629,15.629,0,0,1,5.842-.977,21.638,21.638,0,0,1,5.923.8,10.2,10.2,0,0,1,4.961,3.256l-4.161,3.558a6.8,6.8,0,0,0-2.721-2.255,9.075,9.075,0,0,0-4-.852,10.292,10.292,0,0,0-3.548.526,6.428,6.428,0,0,0-2.267,1.353,4.744,4.744,0,0,0-1.2,1.779,5.14,5.14,0,0,0-.346,1.753,4.324,4.324,0,0,0,1.387,3.458,10.9,10.9,0,0,0,3.441,1.954,43.527,43.527,0,0,0,4.481,1.353,19.945,19.945,0,0,1,4.483,1.678,10.24,10.24,0,0,1,3.441,2.906,8.167,8.167,0,0,1,1.387,5.036,10.059,10.059,0,0,1-1.04,4.609,10.327,10.327,0,0,1-2.8,3.458,12.694,12.694,0,0,1-4.162,2.154,17.056,17.056,0,0,1-5.122.752,19.685,19.685,0,0,1-6.883-1.2,11.257,11.257,0,0,1-5.175-3.707Z" fill="#c91430" stroke="#c91430" stroke-width="1"/>
    </g>
  </g>
</svg>
