<svg id="Layer_1" data-name="Layer 1" xmlns="http://www.w3.org/2000/svg" viewBox="0 0 478 478"><defs><style>.cls-1,.cls-2{fill:none;stroke:#b11f2f;stroke-miterlimit:10;}.cls-1{stroke-width:20px;}.cls-2{stroke-width:24px;}</style></defs><path class="cls-1" d="M179.86,126h85a33,33,0,0,1,33,33v11.66a33,33,0,0,1-33,33h-85a0,0,0,0,1,0,0V126A0,0,0,0,1,179.86,126Z"/><path class="cls-1" d="M180,273.67h85a33,33,0,0,1,33,33v11.66a33,33,0,0,1-33,33H180a0,0,0,0,1,0,0V273.67a0,0,0,0,1,0,0Z"/><path class="cls-1" d="M141,91.31H272a65,65,0,0,1,65,65v17a65,65,0,0,1-65,65H141a0,0,0,0,1,0,0v-147a0,0,0,0,1,0,0Z"/><path class="cls-1" d="M141,239H272a65,65,0,0,1,65,65v17a65,65,0,0,1-65,65H141a0,0,0,0,1,0,0V239A0,0,0,0,1,141,239Z"/><path class="cls-1" d="M158.78,71.82h129.1s97,1.75,102.24,95.24c0,0,6.11,55.53-22.72,88.93,0,0,35,27.29,28,85s-40.58,75.15-40.58,75.15-20.32,21.84-77.25,21.84H127.11s-13.11-.35-40.2-34.25h71.87Z" transform="translate(-17.78 -17.69)"/><line class="cls-1" x1="96.92" y1="62.83" x2="97.83" y2="247.31"/><line class="cls-1" x1="141" y1="34.65" x2="141" y2="91.31"/><line class="cls-1" x1="179.86" y1="18.3" x2="179.86" y2="54.13"/><line class="cls-1" x1="220.37" y1="18.3" x2="220.37" y2="54.13"/><line class="cls-1" x1="261.79" y1="18.3" x2="261.79" y2="54.13"/><line class="cls-1" x1="303.03" y1="27.38" x2="303.79" y2="57.23"/><line class="cls-1" x1="346.5" y1="45.75" x2="346.89" y2="82.1"/><line class="cls-1" x1="389.16" y1="74.41" x2="389.16" y2="286.54"/><line class="cls-1" x1="424.55" y1="116.7" x2="424.55" y2="286.54"/><line class="cls-1" x1="456.08" y1="276.67" x2="372.78" y2="276.67"/><line class="cls-1" x1="450.37" y1="313.5" x2="378.51" y2="313.5"/><line class="cls-1" x1="433.95" y1="349.19" x2="378.51" y2="348.82"/><line class="cls-1" x1="412.24" y1="384" x2="351.67" y2="384"/><line class="cls-1" x1="346.92" y1="433.54" x2="346.92" y2="395.09"/><line class="cls-1" x1="303.52" y1="451.18" x2="303.55" y2="415.01"/><line class="cls-1" x1="261.38" y1="459.77" x2="261.79" y2="425"/><line class="cls-1" x1="220.43" y1="460.18" x2="220.84" y2="424.59"/><line class="cls-1" x1="179.12" y1="453.63" x2="179.53" y2="425.41"/><line class="cls-1" x1="44.72" y1="349.01" x2="136" y2="349.01"/><line class="cls-1" x1="28.62" y1="313.5" x2="141" y2="313.5"/><line class="cls-1" x1="17.36" y1="273.67" x2="174.35" y2="273.67"/><line class="cls-1" x1="11.21" y1="238.19" x2="149.57" y2="238.19"/><line class="cls-1" x1="57.51" y1="103.03" x2="57.51" y2="235"/><line class="cls-1" x1="144.62" y1="203.62" x2="183.78" y2="203.62"/><circle class="cls-2" cx="239" cy="239" r="227"/></svg>