<svg xmlns="http://www.w3.org/2000/svg" width="280.765" height="49.863" viewBox="0 0 280.765 49.863">
  <g id="Group_1321" data-name="Group 1321" transform="translate(-439.5 1177.714)">
    <g id="Group_1320" data-name="Group 1320" transform="translate(10.201)">
      <g id="Group_1" data-name="Group 1" transform="translate(492.799 -1136.814)">
        <path id="Path_1" data-name="Path 1" d="M-1311.421,1400.752a3.8,3.8,0,0,0,2,.567c1.146,0,1.816-.605,1.816-1.481,0-.8-.464-1.275-1.636-1.713-1.417-.515-2.292-1.262-2.292-2.473,0-1.352,1.121-2.357,2.808-2.357a3.884,3.884,0,0,1,1.906.425l-.309.914a3.209,3.209,0,0,0-1.636-.412c-1.185,0-1.635.708-1.635,1.3,0,.811.528,1.211,1.726,1.674,1.468.567,2.2,1.275,2.2,2.55,0,1.339-.979,2.511-3.027,2.511a4.48,4.48,0,0,1-2.215-.567Z" transform="translate(1311.717 -1393.295)" fill="#fff"/>
        <path id="Path_2" data-name="Path 2" d="M-1281.664,1405.116a1.99,1.99,0,0,0,2.138,2.163,4.051,4.051,0,0,0,1.726-.322l.206.812a5.073,5.073,0,0,1-2.086.4,2.9,2.9,0,0,1-3.066-3.155c0-1.88,1.107-3.348,2.924-3.348,2.048,0,2.576,1.777,2.576,2.923a2.737,2.737,0,0,1-.039.528Zm3.322-.811a1.608,1.608,0,0,0-1.571-1.828,1.857,1.857,0,0,0-1.739,1.828Z" transform="translate(1291.26 -1399.205)" fill="#fff"/>
        <path id="Path_3" data-name="Path 3" d="M-1252.1,1403.739c0-.734-.013-1.365-.052-1.945h.992l.051,1.237h.038a1.885,1.885,0,0,1,1.739-1.365,2.293,2.293,0,0,1,.309.026v1.069a1.755,1.755,0,0,0-.386-.026,1.578,1.578,0,0,0-1.52,1.442,3.408,3.408,0,0,0-.039.528v3.323h-1.133Z" transform="translate(1269.658 -1399.205)" fill="#fff"/>
        <path id="Path_4" data-name="Path 4" d="M-1230.694,1402.1l1.224,3.49c.206.58.373,1.095.5,1.61h.038c.142-.515.322-1.03.528-1.61l1.211-3.49h1.185l-2.447,6.233h-1.082l-2.37-6.233Z" transform="translate(1255.36 -1399.515)" fill="#fff"/>
        <path id="Path_5" data-name="Path 5" d="M-1200,1394.442a.676.676,0,0,1-.721.7.666.666,0,0,1-.683-.7.69.69,0,0,1,.708-.709A.68.68,0,0,1-1200,1394.442Zm-1.262,7.984v-6.233h1.133v6.233Z" transform="translate(1233.82 -1393.604)" fill="#fff"/>
        <path id="Path_6" data-name="Path 6" d="M-1180.027,1407.808a4.375,4.375,0,0,1-1.79.361,2.961,2.961,0,0,1-3.1-3.181,3.177,3.177,0,0,1,3.349-3.323A3.565,3.565,0,0,1-1180,1402l-.257.863a2.779,2.779,0,0,0-1.313-.3,2.164,2.164,0,0,0-2.2,2.357,2.138,2.138,0,0,0,2.164,2.331,3.243,3.243,0,0,0,1.391-.3Z" transform="translate(1222.183 -1399.205)" fill="#fff"/>
        <path id="Path_7" data-name="Path 7" d="M-1155.555,1394.442a.676.676,0,0,1-.721.7.666.666,0,0,1-.683-.7.69.69,0,0,1,.708-.709A.68.68,0,0,1-1155.555,1394.442Zm-1.262,7.984v-6.233h1.133v6.233Z" transform="translate(1202.438 -1393.604)" fill="#fff"/>
        <path id="Path_8" data-name="Path 8" d="M-1134.387,1404.859a3.053,3.053,0,0,1-3.1,3.31,2.971,2.971,0,0,1-2.988-3.207,3.047,3.047,0,0,1,3.091-3.3A2.948,2.948,0,0,1-1134.387,1404.859Zm-4.932.064c0,1.365.773,2.4,1.88,2.4,1.082,0,1.893-1.017,1.893-2.421,0-1.056-.528-2.382-1.867-2.382S-1139.32,1403.752-1139.32,1404.923Z" transform="translate(1190.802 -1399.205)" fill="#fff"/>
        <path id="Path_9" data-name="Path 9" d="M-1108.784,1406.881a3.2,3.2,0,0,0,1.507.438c.811,0,1.2-.4,1.2-.927s-.322-.824-1.146-1.133c-1.134-.412-1.661-1.017-1.661-1.764a1.93,1.93,0,0,1,2.151-1.829,2.894,2.894,0,0,1,1.52.386l-.271.824a2.419,2.419,0,0,0-1.275-.373c-.67,0-1.03.386-1.03.85,0,.515.361.747,1.172,1.069,1.069.4,1.635.94,1.635,1.867,0,1.108-.863,1.88-2.318,1.88a3.556,3.556,0,0,1-1.751-.438Z" transform="translate(1168.611 -1399.205)" fill="#fff"/>
        <path id="Path_10" data-name="Path 10" d="M-1066.32,1393.776h4.675v.94h-3.542v2.885h3.271v.927h-3.271v3.928h-1.133Z" transform="translate(1138.436 -1393.635)" fill="#fff"/>
        <path id="Path_11" data-name="Path 11" d="M-1038.005,1394.442a.676.676,0,0,1-.721.7.666.666,0,0,1-.683-.7.691.691,0,0,1,.708-.709A.68.68,0,0,1-1038.005,1394.442Zm-1.262,7.984v-6.233h1.134v6.233Z" transform="translate(1119.433 -1393.604)" fill="#fff"/>
        <path id="Path_12" data-name="Path 12" d="M-1021.52,1403.481c0-.657-.013-1.172-.051-1.687h1l.064,1.03h.026a2.309,2.309,0,0,1,2.061-1.159c.863,0,2.2.515,2.2,2.653v3.709h-1.133v-3.593c0-1-.374-1.842-1.442-1.842a1.635,1.635,0,0,0-1.52,1.159,1.628,1.628,0,0,0-.077.528v3.748h-1.133Z" transform="translate(1106.838 -1399.205)" fill="#fff"/>
        <path id="Path_13" data-name="Path 13" d="M-986.592,1406.533a10.466,10.466,0,0,0,.09,1.494h-1.017l-.09-.785h-.039a2.322,2.322,0,0,1-1.906.927,1.776,1.776,0,0,1-1.906-1.79c0-1.507,1.339-2.331,3.748-2.318v-.128a1.276,1.276,0,0,0-1.417-1.429,3,3,0,0,0-1.636.463l-.258-.76a4.038,4.038,0,0,1,2.061-.541c1.906,0,2.37,1.3,2.37,2.537Zm-1.094-1.687c-1.236-.026-2.64.193-2.64,1.4a.993.993,0,0,0,1.056,1.082,1.573,1.573,0,0,0,1.533-1.043,1.272,1.272,0,0,0,.052-.361Z" transform="translate(1085.575 -1399.205)" fill="#fff"/>
        <path id="Path_14" data-name="Path 14" d="M-961.518,1403.481c0-.657-.013-1.172-.051-1.687h1l.064,1.03h.026a2.309,2.309,0,0,1,2.061-1.159c.863,0,2.2.515,2.2,2.653v3.709h-1.133v-3.593c0-1-.373-1.842-1.443-1.842a1.635,1.635,0,0,0-1.519,1.159,1.626,1.626,0,0,0-.077.528v3.748h-1.134Z" transform="translate(1064.469 -1399.205)" fill="#fff"/>
        <path id="Path_15" data-name="Path 15" d="M-926.433,1407.808a4.376,4.376,0,0,1-1.79.361,2.961,2.961,0,0,1-3.1-3.181,3.177,3.177,0,0,1,3.348-3.323,3.567,3.567,0,0,1,1.571.335l-.258.863a2.779,2.779,0,0,0-1.314-.3,2.164,2.164,0,0,0-2.2,2.357,2.138,2.138,0,0,0,2.164,2.331,3.243,3.243,0,0,0,1.391-.3Z" transform="translate(1043.114 -1399.205)" fill="#fff"/>
        <path id="Path_16" data-name="Path 16" d="M-901.96,1394.442a.676.676,0,0,1-.721.7.666.666,0,0,1-.683-.7.691.691,0,0,1,.708-.709A.68.68,0,0,1-901.96,1394.442Zm-1.262,7.984v-6.233h1.133v6.233Z" transform="translate(1023.369 -1393.604)" fill="#fff"/>
        <path id="Path_17" data-name="Path 17" d="M-885.8,1405.116a1.991,1.991,0,0,0,2.138,2.163,4.05,4.05,0,0,0,1.726-.322l.206.812a5.076,5.076,0,0,1-2.086.4,2.9,2.9,0,0,1-3.065-3.155c0-1.88,1.108-3.348,2.924-3.348,2.048,0,2.576,1.777,2.576,2.923a2.747,2.747,0,0,1-.039.528Zm3.323-.811a1.609,1.609,0,0,0-1.571-1.828,1.856,1.856,0,0,0-1.739,1.828Z" transform="translate(1011.732 -1399.205)" fill="#fff"/>
        <path id="Path_18" data-name="Path 18" d="M-856.241,1403.739c0-.734-.013-1.365-.052-1.945h.992l.052,1.237h.039a1.885,1.885,0,0,1,1.739-1.365,2.293,2.293,0,0,1,.309.026v1.069a1.755,1.755,0,0,0-.386-.026,1.578,1.578,0,0,0-1.52,1.442,3.416,3.416,0,0,0-.038.528v3.323h-1.133Z" transform="translate(990.131 -1399.205)" fill="#fff"/>
        <path id="Path_19" data-name="Path 19" d="M-830.39,1404.859a3.053,3.053,0,0,1-3.1,3.31,2.97,2.97,0,0,1-2.988-3.207,3.046,3.046,0,0,1,3.091-3.3A2.948,2.948,0,0,1-830.39,1404.859Zm-4.932.064c0,1.365.773,2.4,1.88,2.4,1.082,0,1.893-1.017,1.893-2.421,0-1.056-.528-2.382-1.868-2.382S-835.322,1403.752-835.322,1404.923Z" transform="translate(976.141 -1399.205)" fill="#fff"/>
        <path id="Path_20" data-name="Path 20" d="M-804.786,1406.881a3.2,3.2,0,0,0,1.507.438c.811,0,1.2-.4,1.2-.927s-.322-.824-1.146-1.133c-1.133-.412-1.661-1.017-1.661-1.764a1.93,1.93,0,0,1,2.151-1.829,2.893,2.893,0,0,1,1.52.386l-.271.824a2.418,2.418,0,0,0-1.275-.373c-.67,0-1.03.386-1.03.85,0,.515.361.747,1.172,1.069,1.069.4,1.635.94,1.635,1.867,0,1.108-.863,1.88-2.318,1.88a3.557,3.557,0,0,1-1.752-.438Z" transform="translate(953.951 -1399.205)" fill="#fff"/>
      </g>
    </g>
    <g id="Group_1319" data-name="Group 1319" transform="translate(0.422)">
      <g id="Group_3" data-name="Group 3" transform="translate(440.578 -1177)">
        <path id="Path_21" data-name="Path 21" d="M-927.026,1135.545a18.358,18.358,0,0,0-12.594-4.9,18.36,18.36,0,0,0-12.594,4.9,16.193,16.193,0,0,0-5.216,11.828,16.189,16.189,0,0,0,5.216,11.826,18.357,18.357,0,0,0,12.594,4.9,18.355,18.355,0,0,0,12.594-4.9,16.185,16.185,0,0,0,5.216-11.826A16.188,16.188,0,0,0-927.026,1135.545Zm3.4,13.809h-1.384v-8.415a14.327,14.327,0,0,1,1.525,6.434A14.4,14.4,0,0,1-923.625,1149.354Zm-19.691,11.557h1.607v1.484q-.817-.1-1.607-.273Zm-1.493.81a16.6,16.6,0,0,1-2.058-.81h2.058Zm-4.473-2.211a16.061,16.061,0,0,1-1.419-1.128h6.4v0h7.054a6.353,6.353,0,0,0,4.1-1.557,5.4,5.4,0,0,0,1.825-4.05,5.614,5.614,0,0,0-2.031-4.6l-1.079-.74a5.665,5.665,0,0,0,2.986-5.3,6.059,6.059,0,0,0-.747-2.96,5.466,5.466,0,0,0-5.059-2.765h-8.9v-1.128h7.9c5.142,0,8,2.453,8,7.088a7.4,7.4,0,0,1-1.046,3.935l-.369.545-.492.621.538.506.789.856c.5.586.812,1.78.746,3.661-.16,4.552-2.9,7.01-8.169,7.01Zm-6.456-12.773a14.359,14.359,0,0,1,1.859-6.458v6.458Zm18.368,1.4a4.292,4.292,0,0,1,4.561,4.635,3.889,3.889,0,0,1-2.156,3.582,4.6,4.6,0,0,1-2.281.585h-8.916v-6.129h1.369v5.078h6.926a3.31,3.31,0,0,0,3.274-1.675,3.168,3.168,0,0,0,.374-1.6c0-2.025-1.45-3.27-3.648-3.27h-9.746v.008h-8c-.056-.4-.1-.806-.121-1.216Zm-5.945-14.252v-1.264q.789-.174,1.607-.273v1.537Zm-1.493,0h-1.334v-.375q.652-.271,1.334-.488Zm-1.334,11.721h8.276c2.2,0,3.523-1.168,3.523-3.231a3.5,3.5,0,0,0-1.243-2.727,3.685,3.685,0,0,0-2.28-.74h-6.926v5.3h-1.349v-6.386h8.9a4.2,4.2,0,0,1,2.073.584,4.368,4.368,0,0,1,2.2,3.74,4.278,4.278,0,0,1-4.395,4.595h-8.772Zm2.841-1.4v-3.932h5.434a1.911,1.911,0,0,1,2.032,2.1c0,1.207-.665,1.829-2.032,1.829Zm-4.335,2.532h-1.727v-11.443a16.3,16.3,0,0,1,1.727-1.072Zm4.335,4.049h5.434c1.45,0,2.154.623,2.154,1.829,0,1.247-.7,1.87-2.154,1.87H-943.3Zm-4.312.024v1.161H-955c-.129-.38-.24-.768-.337-1.161Zm0,2.617v1.006H-953.9q-.277-.492-.515-1.006Zm0,2.463v1.052h-4.517q-.442-.508-.837-1.052Zm17.375-8.453a7.71,7.71,0,0,0,1.08-2.289v4.124A6.938,6.938,0,0,0-930.238,1147.437Zm1.08-7.912a7.288,7.288,0,0,0-1.687-3.041v-1.826a16.182,16.182,0,0,1,1.687,1.182Zm-3.179-4.251a8.426,8.426,0,0,0-1.68-.783v-1.334a16.565,16.565,0,0,1,1.68.693Zm-3.174-1.162a13.108,13.108,0,0,0-1.68-.2v-1.525a16.921,16.921,0,0,1,1.68.326Zm-1.68,26.764a13.717,13.717,0,0,0,1.68-.216v1.369a16.921,16.921,0,0,1-1.68.326Zm3.173-.6a9.136,9.136,0,0,0,1.68-.755v1.373a16.591,16.591,0,0,1-1.68.693Zm3.172-1.886.008-.008h2.3a16.1,16.1,0,0,1-2.306,1.7Zm1.144-1.448a7.39,7.39,0,0,0,.515-1.052h2.913q-.394.543-.837,1.052Zm.941-2.509a9.556,9.556,0,0,0,.14-1.006h3.793q-.238.513-.515,1.006Zm.163-2.462a9.334,9.334,0,0,0-.128-1.161h4.819c-.1.393-.207.781-.336,1.161Zm2.1-13.416v10.8h-1.165v-12.159A15.485,15.485,0,0,1-926.5,1138.554Zm-12.183-6.309v1.64h-1.533v-1.653c.2-.007.4-.014.6-.014C-939.305,1132.218-938.994,1132.229-938.683,1132.245Zm-12.348,4.412c.057-.054.118-.1.176-.157v10.237h-1.531v-8.627A15.55,15.55,0,0,1-951.031,1136.657Zm10.815,25.854v-1.6h1.533v1.588c-.31.017-.622.027-.937.027C-939.82,1162.526-940.018,1162.519-940.216,1162.512Z" transform="translate(1045.968 -1130.647)" fill="#fff"/>
        <g id="Group_2" data-name="Group 2" transform="translate(0 0.786)">
          <path id="Path_22" data-name="Path 22" d="M-1237.679,1144.078a9.9,9.9,0,0,0-.442-2.842,6.545,6.545,0,0,0-1.568-2.655,8.47,8.47,0,0,0-3.071-1.95,13.625,13.625,0,0,0-4.948-.767h-11v29.374h4.242v-12.945h6.759a13.6,13.6,0,0,0,4.948-.768,8.45,8.45,0,0,0,3.071-1.95,6.539,6.539,0,0,0,1.568-2.655A9.9,9.9,0,0,0-1237.679,1144.078Zm-5.081,2.427a3.877,3.877,0,0,1-1.524,1.432,6.89,6.89,0,0,1-2.165.685,16.125,16.125,0,0,1-2.452.187h-5.567v-9.459h5.567a16.141,16.141,0,0,1,2.452.187,6.9,6.9,0,0,1,2.165.684,3.879,3.879,0,0,1,1.524,1.431,4.583,4.583,0,0,1,.574,2.427A4.581,4.581,0,0,1-1242.76,1146.5Z" transform="translate(1258.709 -1135.116)" fill="#fff" stroke="#fff" stroke-miterlimit="10" stroke-width="3"/>
          <path id="Path_23" data-name="Path 23" d="M-1174.969,1135.863l-13.784,29.374h4.948l3.093-7.261h14.888l3.137,7.261h4.948l-13.387-29.374Zm-4.241,18.628,5.92-13.484h.089l5.831,13.484Z" transform="translate(1209.311 -1135.116)" fill="#fff" stroke="#fff" stroke-miterlimit="10" stroke-width="3"/>
          <path id="Path_24" data-name="Path 24" d="M-1054.693,1147.013v3.734h6.936v8.173a12.463,12.463,0,0,1-3.424,1.141,22.114,22.114,0,0,1-4.263.394,12.734,12.734,0,0,1-4.815-.892,11.857,11.857,0,0,1-3.844-2.469,11.4,11.4,0,0,1-2.563-3.713,11.492,11.492,0,0,1-.928-4.626,12.319,12.319,0,0,1,.839-4.543,10.969,10.969,0,0,1,2.386-3.713,11.53,11.53,0,0,1,3.711-2.51,12.157,12.157,0,0,1,4.859-.933,15,15,0,0,1,4.551.685,11.246,11.246,0,0,1,4.109,2.427l3-3.029a13.124,13.124,0,0,0-4.595-2.8,20.646,20.646,0,0,0-7.069-1.016,17.825,17.825,0,0,0-6.583,1.182,15.422,15.422,0,0,0-5.147,3.257,14.988,14.988,0,0,0-3.358,4.9,15.252,15.252,0,0,0-1.215,6.1,15.7,15.7,0,0,0,1.126,5.912,14.376,14.376,0,0,0,3.27,4.916,15.618,15.618,0,0,0,5.257,3.361,18.978,18.978,0,0,0,7.091,1.245,29.78,29.78,0,0,0,3.026-.166,27.382,27.382,0,0,0,3.181-.518,29.146,29.146,0,0,0,3.026-.851,14.71,14.71,0,0,0,2.606-1.162v-14.48Z" transform="translate(1126.94 -1133.322)" fill="#fff" stroke="#fff" stroke-miterlimit="10" stroke-width="3"/>
        </g>
      </g>
      <g id="Group_10" data-name="Group 10" transform="translate(569.281 -1174.941)">
        <g id="Group_4" data-name="Group 4" transform="translate(0 0.76)">
          <path id="Path_25" data-name="Path 25" d="M-1300.551,1254.918h11.052a15.164,15.164,0,0,1,3.841.464,9.324,9.324,0,0,1,3.056,1.371,6.511,6.511,0,0,1,2.022,2.321,7.032,7.032,0,0,1,.741,3.312,5.88,5.88,0,0,1-1.528,4.2,8.986,8.986,0,0,1-3.954,2.384v.085a7.066,7.066,0,0,1,2.7.7,7.322,7.322,0,0,1,2.179,1.6,7.627,7.627,0,0,1,1.46,2.3,7.346,7.346,0,0,1,.539,2.827,7.089,7.089,0,0,1-.876,3.565,7.848,7.848,0,0,1-2.4,2.595,11.451,11.451,0,0,1-3.549,1.6,16.563,16.563,0,0,1-4.358.549h-10.918Zm4.313,12.4h5.885a10.845,10.845,0,0,0,2.292-.232,5.307,5.307,0,0,0,1.887-.781,4.035,4.035,0,0,0,1.281-1.392,4.184,4.184,0,0,0,.472-2.068,4.383,4.383,0,0,0-1.213-3.08,4.984,4.984,0,0,0-3.819-1.308h-6.784Zm0,13.923h6.335a13.915,13.915,0,0,0,2.179-.19,6.793,6.793,0,0,0,2.224-.76,5.414,5.414,0,0,0,1.752-1.54,4.221,4.221,0,0,0,.719-2.574,4.6,4.6,0,0,0-1.842-3.987,8.363,8.363,0,0,0-4.987-1.329h-6.38Z" transform="translate(1300.551 -1254.918)" fill="#fff" stroke="#fff" stroke-miterlimit="10" stroke-width="3"/>
        </g>
        <g id="Group_5" data-name="Group 5" transform="translate(26.096 0.76)">
          <path id="Path_26" data-name="Path 26" d="M-1211.75,1254.918h4.313v29.872h-4.313Z" transform="translate(1211.75 -1254.918)" fill="#fff" stroke="#fff" stroke-miterlimit="10" stroke-width="3"/>
        </g>
        <g id="Group_6" data-name="Group 6" transform="translate(34.216 0)">
          <path id="Path_27" data-name="Path 27" d="M-1159.993,1259.548a8.841,8.841,0,0,0-3.415-2.531,10.735,10.735,0,0,0-4.269-.886,12.086,12.086,0,0,0-4.875.949,11.2,11.2,0,0,0-3.728,2.595,11.7,11.7,0,0,0-2.4,3.861,13.084,13.084,0,0,0-.854,4.747,12.4,12.4,0,0,0,.808,4.472,11.076,11.076,0,0,0,2.336,3.713,10.942,10.942,0,0,0,3.73,2.531,12.717,12.717,0,0,0,4.987.928,10.436,10.436,0,0,0,4.807-1.055,10.127,10.127,0,0,0,3.5-2.953l3.64,2.573a14,14,0,0,1-1.258,1.329,12.561,12.561,0,0,1-2.382,1.73,17.414,17.414,0,0,1-3.571,1.519,16.2,16.2,0,0,1-4.83.654,16.564,16.564,0,0,1-6.807-1.35,16.428,16.428,0,0,1-5.166-3.544,15.315,15.315,0,0,1-3.258-4.958,14.723,14.723,0,0,1-1.123-5.59,16.566,16.566,0,0,1,1.213-6.392,15.027,15.027,0,0,1,3.392-5.063,15.258,15.258,0,0,1,5.234-3.312,18.553,18.553,0,0,1,6.739-1.182,17.439,17.439,0,0,1,6.178,1.139,11.5,11.5,0,0,1,4.965,3.5Z" transform="translate(1184.12 -1252.333)" fill="#fff" stroke="#fff" stroke-miterlimit="10" stroke-width="3"/>
        </g>
        <g id="Group_7" data-name="Group 7" transform="translate(63.451 0)">
          <path id="Path_28" data-name="Path 28" d="M-1060.511,1259.548a8.827,8.827,0,0,0-3.415-2.531,10.728,10.728,0,0,0-4.268-.886,12.081,12.081,0,0,0-4.874.949,11.2,11.2,0,0,0-3.729,2.595,11.687,11.687,0,0,0-2.4,3.861,13.084,13.084,0,0,0-.854,4.747,12.372,12.372,0,0,0,.809,4.472,11.041,11.041,0,0,0,2.336,3.713,10.933,10.933,0,0,0,3.729,2.531,12.718,12.718,0,0,0,4.987.928,10.442,10.442,0,0,0,4.808-1.055,10.136,10.136,0,0,0,3.5-2.953l3.639,2.573a13.9,13.9,0,0,1-1.258,1.329,12.54,12.54,0,0,1-2.381,1.73,17.408,17.408,0,0,1-3.572,1.519,16.2,16.2,0,0,1-4.83.654,16.564,16.564,0,0,1-6.807-1.35,16.442,16.442,0,0,1-5.167-3.544,15.33,15.33,0,0,1-3.257-4.958,14.73,14.73,0,0,1-1.123-5.59,16.555,16.555,0,0,1,1.213-6.392,15.025,15.025,0,0,1,3.392-5.063,15.253,15.253,0,0,1,5.235-3.312,18.547,18.547,0,0,1,6.739-1.182,17.442,17.442,0,0,1,6.178,1.139,11.5,11.5,0,0,1,4.964,3.5Z" transform="translate(1084.638 -1252.333)" fill="#fff" stroke="#fff" stroke-miterlimit="10" stroke-width="3"/>
        </g>
        <g id="Group_8" data-name="Group 8" transform="translate(92.686 0)">
          <path id="Path_29" data-name="Path 29" d="M-968.579,1283.724a18.125,18.125,0,0,1-6.694-1.2,15.673,15.673,0,0,1-5.234-3.312,15.224,15.224,0,0,1-3.415-4.979,15.5,15.5,0,0,1-1.236-6.2,15.5,15.5,0,0,1,1.236-6.2,15.24,15.24,0,0,1,3.415-4.979,15.684,15.684,0,0,1,5.234-3.312,18.122,18.122,0,0,1,6.694-1.2,18.125,18.125,0,0,1,6.7,1.2,15.684,15.684,0,0,1,5.234,3.312,15.248,15.248,0,0,1,3.415,4.979,15.515,15.515,0,0,1,1.235,6.2,15.509,15.509,0,0,1-1.235,6.2,15.233,15.233,0,0,1-3.415,4.979,15.674,15.674,0,0,1-5.234,3.312A18.128,18.128,0,0,1-968.579,1283.724Zm0-3.8a12.362,12.362,0,0,0,4.943-.949,11.713,11.713,0,0,0,3.774-2.553,11.148,11.148,0,0,0,2.426-3.776,12.525,12.525,0,0,0,.854-4.62,12.533,12.533,0,0,0-.854-4.62,11.168,11.168,0,0,0-2.426-3.776,11.732,11.732,0,0,0-3.774-2.552,12.364,12.364,0,0,0-4.943-.949,12.355,12.355,0,0,0-4.941.949,11.724,11.724,0,0,0-3.775,2.552,11.158,11.158,0,0,0-2.426,3.776,12.522,12.522,0,0,0-.854,4.62,12.515,12.515,0,0,0,.854,4.62,11.139,11.139,0,0,0,2.426,3.776,11.705,11.705,0,0,0,3.775,2.553A12.353,12.353,0,0,0-968.579,1279.927Z" transform="translate(985.157 -1252.333)" fill="#fff" stroke="#fff" stroke-miterlimit="10" stroke-width="3"/>
        </g>
        <g id="Group_9" data-name="Group 9" transform="translate(127.545 0)">
          <path id="Path_30" data-name="Path 30" d="M-862.991,1276.72a6.973,6.973,0,0,0,2.987,2.426,9.418,9.418,0,0,0,3.752.781,8.092,8.092,0,0,0,2.2-.317,6.873,6.873,0,0,0,2.044-.949,5.311,5.311,0,0,0,1.505-1.561,3.956,3.956,0,0,0,.584-2.152,3.138,3.138,0,0,0-1.168-2.637,10.309,10.309,0,0,0-2.9-1.519q-1.73-.611-3.774-1.181a15.859,15.859,0,0,1-3.773-1.582,8.958,8.958,0,0,1-2.9-2.722,8.066,8.066,0,0,1-1.168-4.62,7.343,7.343,0,0,1,.607-2.784,7.735,7.735,0,0,1,1.909-2.7,10.619,10.619,0,0,1,3.347-2.046,13.172,13.172,0,0,1,4.919-.823,18.227,18.227,0,0,1,4.988.675,8.6,8.6,0,0,1,4.178,2.743l-3.5,3a5.716,5.716,0,0,0-2.291-1.9,7.639,7.639,0,0,0-3.37-.717,8.651,8.651,0,0,0-2.988.443,5.415,5.415,0,0,0-1.91,1.139,3.992,3.992,0,0,0-1.011,1.5,4.33,4.33,0,0,0-.292,1.476,3.64,3.64,0,0,0,1.168,2.911,9.18,9.18,0,0,0,2.9,1.646,36.434,36.434,0,0,0,3.773,1.139,16.8,16.8,0,0,1,3.774,1.414,8.628,8.628,0,0,1,2.9,2.447,6.873,6.873,0,0,1,1.168,4.24,8.468,8.468,0,0,1-.876,3.882,8.69,8.69,0,0,1-2.358,2.911,10.68,10.68,0,0,1-3.5,1.814,14.363,14.363,0,0,1-4.313.633,16.579,16.579,0,0,1-5.8-1.013,9.474,9.474,0,0,1-4.358-3.122Z" transform="translate(866.54 -1252.333)" fill="#fff" stroke="#fff" stroke-miterlimit="10" stroke-width="3"/>
        </g>
      </g>
    </g>
  </g>
</svg>
