<svg xmlns="http://www.w3.org/2000/svg" width="339" height="70.241" viewBox="0 0 339 70.241">
  <g id="Group_2263" data-name="Group 2263" transform="translate(-1348.249 301.296)">
    <text id="Servicios_Financieros_" data-name="Servicios Financieros " transform="translate(1348.249 -235.055)" fill="#fff" font-size="17" font-family="MyriadPro-Regular, Myriad Pro" letter-spacing="0.526em"><tspan x="0" y="0">Servicios Financieros </tspan></text>
    <path id="Path_441" data-name="Path 441" d="M544.239,550.223a22.869,22.869,0,0,0-30.9,0,19.652,19.652,0,0,0,0,29.021,22.869,22.869,0,0,0,30.9,0,19.65,19.65,0,0,0,0-29.021Zm4.173,16.941h-1.7V556.84a17.487,17.487,0,0,1,1.7,10.324Zm-24.159,14.18h1.971v1.822q-1-.123-1.971-.336Zm-1.832.994a20.367,20.367,0,0,1-2.525-.994h2.525Zm-5.488-2.713a19.654,19.654,0,0,1-1.742-1.383h7.854v0H531.7a7.792,7.792,0,0,0,5.037-1.91,6.631,6.631,0,0,0,2.239-4.968,6.887,6.887,0,0,0-2.492-5.639l-1.324-.908a6.952,6.952,0,0,0,3.664-6.5,7.431,7.431,0,0,0-.917-3.631,6.706,6.706,0,0,0-6.207-3.393H520.785v-1.385h9.693c6.309,0,9.82,3.01,9.82,8.7a9.077,9.077,0,0,1-1.284,4.828l-.452.669-.6.762.66.621.968,1.05c.609.719,1,2.184.914,4.493-.195,5.585-3.562,8.6-10.023,8.6Zm-7.922-15.671a17.613,17.613,0,0,1,2.281-7.924v7.924Zm22.536,1.719c3.408,0,5.6,2.2,5.6,5.687a4.771,4.771,0,0,1-2.646,4.394,5.646,5.646,0,0,1-2.8.717H520.76v-7.519h1.68v6.23h8.5c1.984,0,3.3-.669,4.017-2.055a3.88,3.88,0,0,0,.459-1.96c0-2.485-1.78-4.012-4.476-4.012H518.98v.009h-9.816c-.069-.492-.122-.988-.149-1.491Zm-7.294-17.487v-1.55q.968-.213,1.971-.335v1.885Zm-1.832,0h-1.636v-.459q.8-.333,1.636-.6Zm-1.636,14.382h10.153c2.7,0,4.323-1.433,4.323-3.965a4.29,4.29,0,0,0-1.526-3.345,4.521,4.521,0,0,0-2.8-.908h-8.5v6.5h-1.655v-7.835H531.7a5.147,5.147,0,0,1,2.544.716,5.357,5.357,0,0,1,2.7,4.588c0,3.3-2.137,5.638-5.392,5.638H520.785Zm3.486-1.721v-4.824h6.667a2.345,2.345,0,0,1,2.493,2.58c0,1.481-.816,2.244-2.493,2.244Zm-5.319,3.107h-2.119V549.915a19.908,19.908,0,0,1,2.119-1.315Zm5.319,4.968h6.667c1.779,0,2.643.765,2.643,2.245,0,1.53-.864,2.294-2.643,2.294h-6.667Zm-5.291.03v1.424h-9.06c-.158-.467-.294-.943-.413-1.424Zm0,3.21V573.4h-7.711q-.339-.6-.632-1.234Zm0,3.022v1.291h-5.542q-.541-.624-1.026-1.291ZM540.3,564.813a9.482,9.482,0,0,0,1.326-2.808v5.06A8.526,8.526,0,0,0,540.3,564.813Zm1.326-9.708a8.959,8.959,0,0,0-2.07-3.731v-2.24a19.825,19.825,0,0,1,2.07,1.45Zm-3.9-5.215a10.344,10.344,0,0,0-2.061-.961v-1.636a20.258,20.258,0,0,1,2.061.85Zm-3.894-1.426a16.2,16.2,0,0,0-2.061-.243v-1.87a20.447,20.447,0,0,1,2.061.4ZM531.768,581.3a16.785,16.785,0,0,0,2.061-.266v1.68a20.723,20.723,0,0,1-2.061.4Zm3.894-.736a11.247,11.247,0,0,0,2.061-.927v1.684a20.258,20.258,0,0,1-2.061.85Zm3.892-2.314.01-.01h2.82a19.835,19.835,0,0,1-2.83,2.091Zm1.4-1.777a9.03,9.03,0,0,0,.632-1.291h3.574q-.483.666-1.027,1.291Zm1.155-3.079a11.426,11.426,0,0,0,.172-1.234h4.654q-.293.63-.633,1.234Zm.2-3.02a11.293,11.293,0,0,0-.158-1.424h5.914c-.119.481-.255.957-.413,1.424Zm2.571-16.461v13.249h-1.428V552.246A19.006,19.006,0,0,1,544.883,553.915Zm-14.947-7.741v2.012h-1.88v-2.028c.243-.008.486-.017.731-.017C529.173,546.141,529.556,546.154,529.936,546.174Zm-15.149,5.413c.07-.066.144-.128.216-.193v12.56h-1.879V553.369A19.021,19.021,0,0,1,514.787,551.587Zm13.269,31.722v-1.965h1.88v1.948c-.38.021-.763.034-1.149.034C528.542,583.326,528.3,583.317,528.056,583.309Z" transform="translate(948.133 -845.213)" fill="#003057" stroke="#003057" stroke-miterlimit="10" stroke-width="0.5"/>
    <g id="Group_2256" data-name="Group 2256" transform="translate(948.133 -845.213)">
      <path id="Path_442" data-name="Path 442" d="M427.468,556.059a11.761,11.761,0,0,0-.525-3.375,7.772,7.772,0,0,0-1.862-3.153,10.067,10.067,0,0,0-3.646-2.316,16.189,16.189,0,0,0-5.877-.911H402.494v34.883h5.037V565.815h8.027a16.167,16.167,0,0,0,5.877-.912,10.029,10.029,0,0,0,3.646-2.316,7.765,7.765,0,0,0,1.862-3.153A11.752,11.752,0,0,0,427.468,556.059Zm-6.033,2.882a4.6,4.6,0,0,1-1.811,1.7,8.159,8.159,0,0,1-2.57.813,19.134,19.134,0,0,1-2.912.222h-6.611V550.443h6.611a19.267,19.267,0,0,1,2.912.221,8.185,8.185,0,0,1,2.57.813,4.607,4.607,0,0,1,1.811,1.7,6.43,6.43,0,0,1,0,5.764Z" fill="#003057" stroke="#003057" stroke-miterlimit="10" stroke-width="3"/>
      <path id="Path_443" data-name="Path 443" d="M443.277,546.3l-16.369,34.883h5.876l3.673-8.622h17.68l3.725,8.622h5.877l-15.9-34.883Zm-5.037,22.122,7.031-16.013h.105l6.925,16.013Z" fill="#003057" stroke="#003057" stroke-miterlimit="10" stroke-width="3"/>
      <path id="Path_444" data-name="Path 444" d="M488.29,561.676v4.434h8.237v9.706a14.757,14.757,0,0,1-4.066,1.355,26.212,26.212,0,0,1-5.063.469,15.118,15.118,0,0,1-5.719-1.06,14.077,14.077,0,0,1-4.564-2.932,13.587,13.587,0,0,1-4.145-9.9,14.617,14.617,0,0,1,1-5.4,13.015,13.015,0,0,1,2.833-4.41,13.694,13.694,0,0,1,4.407-2.98,14.431,14.431,0,0,1,5.771-1.109,17.816,17.816,0,0,1,5.4.813,13.351,13.351,0,0,1,4.879,2.883l3.568-3.6a15.578,15.578,0,0,0-5.456-3.326,24.532,24.532,0,0,0-8.395-1.207,21.164,21.164,0,0,0-7.817,1.4,18.3,18.3,0,0,0-6.112,3.868,17.8,17.8,0,0,0-3.988,5.814,18.114,18.114,0,0,0-1.443,7.242,18.651,18.651,0,0,0,1.338,7.021,17.076,17.076,0,0,0,3.883,5.839,18.561,18.561,0,0,0,6.243,3.991,22.556,22.556,0,0,0,8.421,1.478,35.353,35.353,0,0,0,3.594-.2,32.668,32.668,0,0,0,3.777-.616,34.613,34.613,0,0,0,3.594-1.01,17.5,17.5,0,0,0,3.1-1.38V561.676Z" fill="#003057" stroke="#003057" stroke-miterlimit="10" stroke-width="3"/>
    </g>
    <g id="Group_2257" data-name="Group 2257" transform="translate(948.133 -845.213)">
      <path id="Path_445" data-name="Path 445" d="M555.991,547.165h13.125a18,18,0,0,1,4.561.552,11.065,11.065,0,0,1,3.629,1.628,7.726,7.726,0,0,1,2.4,2.756,8.351,8.351,0,0,1,.881,3.933,6.986,6.986,0,0,1-1.815,4.986,10.664,10.664,0,0,1-4.7,2.83v.1a8.394,8.394,0,0,1,3.2.826,8.71,8.71,0,0,1,2.588,1.9,9.072,9.072,0,0,1,1.734,2.731,8.723,8.723,0,0,1,.64,3.357A8.42,8.42,0,0,1,581.2,577a9.306,9.306,0,0,1-2.855,3.081,13.574,13.574,0,0,1-4.215,1.9,19.67,19.67,0,0,1-5.175.652H555.991Zm5.122,14.731H568.1a12.884,12.884,0,0,0,2.721-.275,6.3,6.3,0,0,0,2.241-.927,4.8,4.8,0,0,0,1.521-1.654,4.968,4.968,0,0,0,.56-2.455,5.2,5.2,0,0,0-1.44-3.657,5.921,5.921,0,0,0-4.536-1.554h-8.056Zm0,16.535h7.523a16.583,16.583,0,0,0,2.588-.225,8.082,8.082,0,0,0,2.641-.9,6.427,6.427,0,0,0,2.08-1.829,5.015,5.015,0,0,0,.854-3.056,5.455,5.455,0,0,0-2.188-4.735,9.926,9.926,0,0,0-5.922-1.579h-7.576Z" fill="#fff" stroke="#fff" stroke-miterlimit="10" stroke-width="3"/>
    </g>
    <g id="Group_2258" data-name="Group 2258" transform="translate(948.133 -845.213)">
      <path id="Path_446" data-name="Path 446" d="M586.981,547.165H592.1V582.64h-5.123Z" fill="#fff" stroke="#fff" stroke-miterlimit="10" stroke-width="3"/>
    </g>
    <g id="Group_2259" data-name="Group 2259" transform="translate(948.133 -845.213)">
      <path id="Path_447" data-name="Path 447" d="M625.276,554.832a10.513,10.513,0,0,0-4.055-3.007,12.76,12.76,0,0,0-5.069-1.052,14.363,14.363,0,0,0-5.79,1.127,13.3,13.3,0,0,0-4.427,3.082,13.887,13.887,0,0,0-2.856,4.585,15.53,15.53,0,0,0-1.013,5.636,14.721,14.721,0,0,0,.96,5.312,13.143,13.143,0,0,0,2.775,4.409,12.968,12.968,0,0,0,4.428,3.006,15.115,15.115,0,0,0,5.923,1.1,12.394,12.394,0,0,0,5.708-1.252,12.03,12.03,0,0,0,4.162-3.508l4.322,3.057a16.542,16.542,0,0,1-1.494,1.578,14.91,14.91,0,0,1-2.828,2.054,20.738,20.738,0,0,1-4.241,1.8,19.227,19.227,0,0,1-5.736.777,19.482,19.482,0,0,1-14.219-5.812,18.183,18.183,0,0,1-3.868-5.888,17.476,17.476,0,0,1-1.334-6.639,19.68,19.68,0,0,1,1.44-7.591,17.831,17.831,0,0,1,4.029-6.012,18.111,18.111,0,0,1,6.215-3.933,22.027,22.027,0,0,1,8-1.4,20.7,20.7,0,0,1,7.336,1.353,13.647,13.647,0,0,1,5.9,4.158Z" fill="#fff" stroke="#fff" stroke-miterlimit="10" stroke-width="3"/>
    </g>
    <g id="Group_2260" data-name="Group 2260" transform="translate(948.133 -845.213)">
      <path id="Path_448" data-name="Path 448" d="M659.993,554.832a10.49,10.49,0,0,0-4.055-3.007,12.748,12.748,0,0,0-5.068-1.052,14.351,14.351,0,0,0-5.789,1.127,13.3,13.3,0,0,0-4.429,3.082,13.884,13.884,0,0,0-2.854,4.585,15.53,15.53,0,0,0-1.014,5.636,14.7,14.7,0,0,0,.961,5.312,13.11,13.11,0,0,0,2.774,4.409,12.979,12.979,0,0,0,4.428,3.006,15.115,15.115,0,0,0,5.923,1.1,12.4,12.4,0,0,0,5.709-1.252,12.044,12.044,0,0,0,4.161-3.508l4.321,3.057a16.372,16.372,0,0,1-1.493,1.578,14.91,14.91,0,0,1-2.828,2.054,20.727,20.727,0,0,1-4.242,1.8,19.215,19.215,0,0,1-5.735.777,19.482,19.482,0,0,1-14.219-5.812,18.2,18.2,0,0,1-3.868-5.888,17.5,17.5,0,0,1-1.334-6.639,19.681,19.681,0,0,1,1.44-7.591,17.848,17.848,0,0,1,4.029-6.012,18.1,18.1,0,0,1,6.216-3.933,22.019,22.019,0,0,1,8-1.4,20.711,20.711,0,0,1,7.336,1.353,13.649,13.649,0,0,1,5.9,4.158Z" fill="#fff" stroke="#fff" stroke-miterlimit="10" stroke-width="3"/>
    </g>
    <g id="Group_2261" data-name="Group 2261" transform="translate(948.133 -845.213)">
      <path id="Path_449" data-name="Path 449" d="M685.747,583.542a21.525,21.525,0,0,1-7.95-1.428,18.6,18.6,0,0,1-6.215-3.934,18.079,18.079,0,0,1-4.055-5.912,19.224,19.224,0,0,1,0-14.731,18.11,18.11,0,0,1,4.055-5.912,18.616,18.616,0,0,1,6.215-3.933,22.846,22.846,0,0,1,15.9,0,18.626,18.626,0,0,1,6.215,3.933,18.11,18.11,0,0,1,4.055,5.912,19.224,19.224,0,0,1,0,14.731,18.079,18.079,0,0,1-4.055,5.912,18.613,18.613,0,0,1-6.215,3.934A21.534,21.534,0,0,1,685.747,583.542Zm0-4.51a14.678,14.678,0,0,0,5.87-1.127,13.934,13.934,0,0,0,4.481-3.031,13.246,13.246,0,0,0,2.882-4.485,15.349,15.349,0,0,0,0-10.973,13.251,13.251,0,0,0-2.882-4.484,13.935,13.935,0,0,0-4.481-3.032,15.845,15.845,0,0,0-11.738,0,13.918,13.918,0,0,0-4.482,3.032,13.237,13.237,0,0,0-2.882,4.484,15.364,15.364,0,0,0,0,10.973,13.232,13.232,0,0,0,2.882,4.485,13.917,13.917,0,0,0,4.482,3.031A14.667,14.667,0,0,0,685.747,579.032Z" fill="#fff" stroke="#fff" stroke-miterlimit="10" stroke-width="3"/>
    </g>
    <g id="Group_2262" data-name="Group 2262" transform="translate(948.133 -845.213)">
      <path id="Path_450" data-name="Path 450" d="M711.67,575.224a8.278,8.278,0,0,0,3.548,2.881,11.171,11.171,0,0,0,4.455.927,9.635,9.635,0,0,0,2.615-.375,8.17,8.17,0,0,0,2.427-1.128,6.316,6.316,0,0,0,1.788-1.854,4.7,4.7,0,0,0,.693-2.555,3.727,3.727,0,0,0-1.387-3.132,12.213,12.213,0,0,0-3.441-1.8q-2.055-.726-4.483-1.4a18.831,18.831,0,0,1-4.48-1.879,10.633,10.633,0,0,1-3.442-3.232,9.583,9.583,0,0,1-1.387-5.487,8.712,8.712,0,0,1,.72-3.307,9.184,9.184,0,0,1,2.267-3.206,12.59,12.59,0,0,1,3.975-2.43,15.627,15.627,0,0,1,5.842-.977,21.637,21.637,0,0,1,5.923.8,10.216,10.216,0,0,1,4.962,3.257L728.1,553.88a6.787,6.787,0,0,0-2.721-2.255,9.075,9.075,0,0,0-4-.852,10.258,10.258,0,0,0-3.547.526,6.434,6.434,0,0,0-2.268,1.353,4.733,4.733,0,0,0-1.2,1.779,5.143,5.143,0,0,0-.347,1.753,4.324,4.324,0,0,0,1.387,3.458,10.924,10.924,0,0,0,3.442,1.954,43.389,43.389,0,0,0,4.481,1.353,19.955,19.955,0,0,1,4.482,1.678,10.24,10.24,0,0,1,3.441,2.906,8.158,8.158,0,0,1,1.388,5.036,10.05,10.05,0,0,1-1.041,4.609,10.327,10.327,0,0,1-2.8,3.458,12.688,12.688,0,0,1-4.161,2.154,17.059,17.059,0,0,1-5.122.752,19.681,19.681,0,0,1-6.883-1.2,11.252,11.252,0,0,1-5.175-3.707Z" fill="#fff" stroke="#fff" stroke-miterlimit="10" stroke-width="3"/>
    </g>
  </g>
</svg>
